ply
format ascii 1.0
comment Exported by Aspose.3D 20.2.1
element vertex 805
property float x
property float y
property float z
element face 1630
property list uchar int vertex_index
end_header
38.5791 9.185 24.1178
38.5326 9.123 24.2912
31.187 0 75.069
-5.875 0 85
-42.938 0 75.069
-70.069 0 47.938
-80 0 10.875
-70.069 0 -26.188
38.5865 9.195 24.09
38.634 9.2321 23.9129
38.6416 9.238 23.8846
38.6893 9.2509 23.7066
38.6969 9.253 23.678
38.7449 9.2401 23.4989
38.7525 9.238 23.4705
38.8 9.2009 23.2933
38.8076 9.195 23.2652
38.8615 9.123 23.0639
31.187 0 -53.319
-42.938 0 -53.319
58.319 0 47.938
58.319 0 -26.188
-5.875 0 -63.25
68.25 0 10.875
-5.875 64.242 -60.782
29.953 64.242 -51.181
56.181 64.242 -24.953
31.187 64.242 -53.319
65.782 64.242 10.875
58.319 64.242 -26.188
56.181 64.242 46.703
29.953 64.242 72.931
58.319 64.242 47.938
-5.875 64.242 82.532
31.187 64.242 75.069
-41.703 64.242 72.931
-67.931 64.242 46.703
-42.938 64.242 75.069
-77.532 64.242 10.875
-70.069 64.242 47.938
-67.931 64.242 -24.953
-41.703 64.242 -51.181
-70.069 64.242 -26.188
-42.938 64.242 -53.319
-5.875 64.242 85
-80 64.242 10.875
-5.875 64.242 -63.25
68.25 64.242 10.875
-29.094 0.248 -57.0285
-24.8556 0.248 -58.1642
-24.8601 6.3859 -58.163
-24.8657 6.545 -58.1615
-24.8556 6.251 -58.1642
-24.8965 6.836 -58.1532
-24.9465 7.122 -58.1398
-25.0166 7.4 -58.121
-25.0577 7.5222 -58.11
-25.1061 7.666 -58.097
-25.2129 7.918 -58.0684
-25.2699 8.027 -58.0531
-25.3368 8.155 -58.0352
-25.4762 8.373 -57.9979
-25.6302 8.571 -57.9566
-25.7973 8.747 -57.9118
-25.8796 8.8166 -57.8898
-25.9761 8.898 -57.8639
-26.1637 9.024 -57.8137
-26.3597 9.123 -57.7611
-26.5616 9.195 -57.707
-26.6568 9.2149 -57.6815
-26.7673 9.238 -57.6519
-26.9749 9.253 -57.5963
-27.1826 9.238 -57.5406
-27.3884 9.195 -57.4855
-27.5903 9.123 -57.4314
-27.7864 9.024 -57.3789
-28.6131 8.155 -57.1574
-27.9739 8.898 -57.3286
-28.1526 8.747 -57.2807
38.1332 6.545 25.7816
38.1304 6.251 25.7921
-28.23 8.665 -57.26
-28.319 8.571 -57.2362
-28.3912 8.4787 -57.2168
38.1403 6.7944 25.7553
-28.4737 8.373 -57.1947
38.1414 6.836 25.751
38.1549 7.122 25.7004
-28.7372 7.918 -57.1241
-28.8439 7.666 -57.0955
-28.9332 7.4 -57.0716
-29.0025 7.122 -57.053
38.1709 7.3603 25.641
38.1736 7.4 25.631
-29.0534 6.836 -57.0394
-29.0842 6.545 -57.0311
-29.094 6.251 -57.0285
38.1974 7.666 25.5422
38.222 7.8822 25.4502
38.2261 7.918 25.4351
38.2543 8.1214 25.3296
38.259 8.155 25.312
38.2964 8.373 25.1727
38.3376 8.571 25.0189
38.3761 8.7223 24.8752
38.3824 8.747 24.8518
38.4233 8.8768 24.6992
38.43 8.898 24.6742
-74.5897 6.251 -9.3164
-74.5925 6.545 -9.3059
-74.5958 6.659 -9.2938
-74.6006 6.836 -9.2757
38.1304 0.248 25.7921
-74.6142 7.122 -9.2251
-74.6215 7.231 -9.1979
-74.6329 7.4 -9.1553
39.2635 6.251 21.564
39.2635 0.248 21.564
18.126 0.248 52.446
18.126 9.997 52.446
35.696 9.997 34.876
35.696 0.248 34.876
8.2755 7.918 55.0858
8.2514 7.9641 55.0923
-74.6567 7.666 -9.0665
8.3825 7.666 55.0572
8.3619 7.7148 55.0627
-74.668 7.7649 -9.0245
-74.6853 7.918 -8.9598
-74.6982 8.0111 -8.9115
-74.7184 8.155 -8.8363
8.4709 7.4 55.0335
8.4537 7.4514 55.0381
-74.7557 8.373 -8.6969
8.5409 7.122 55.0147
8.5275 7.1756 55.0183
-74.7969 8.571 -8.5432
-74.8146 8.6403 -8.4773
-74.8416 8.747 -8.3765
-74.8603 8.8065 -8.3065
-74.8893 8.898 -8.1984
8.5913 6.836 55.0012
8.5815 6.8911 55.0038
8.6217 6.545 54.993
8.632 6.251 54.9903
8.6302 6.3076 54.9908
-74.9092 8.9477 -8.1243
-74.9395 9.024 -8.0112
44.4717 0.248 -40.0348
-74.9601 9.0631 -7.934
-74.9919 9.123 -7.8154
8.1519 8.155 55.1189
43.514 9.024 -40.9924
-75.0133 9.1515 -7.7358
-75.0457 9.195 -7.6147
7.5138 8.898 55.29
-75.0675 9.212 -7.5333
-75.1007 9.238 -7.4094
7.6919 8.747 55.2422
7.657 8.7768 55.2516
-75.1227 9.244 -7.3275
-75.1562 9.253 -7.2023
7.8589 8.571 55.1975
-75.1783 9.247 -7.1198
-75.2118 9.238 -6.9948
8.0125 8.373 55.1563
-75.2337 9.2209 -6.9132
-75.2668 9.195 -6.7895
-75.3208 9.123 -6.5882
-75.3731 9.024 -6.393
6.3092 9.238 55.6128
6.2672 9.2292 55.624
-75.3932 8.9737 -6.318
-75.4232 8.898 -6.2058
6.5168 9.253 55.5571
6.4748 9.25 55.5684
44.4684 6.3735 -40.0381
44.4717 6.251 -40.0348
-75.4423 8.8376 -6.1347
-75.471 8.747 -6.0276
6.7237 9.238 55.5017
6.6818 9.241 55.5129
-75.4889 8.6765 -5.9607
-75.5156 8.571 -5.861
44.464 6.545 -40.0424
6.9294 9.195 55.4466
6.8882 9.2036 55.4576
44.4418 6.836 -40.0647
-75.5568 8.373 -5.7072
7.1306 9.123 55.3927
7.0902 9.1374 55.4035
44.4265 6.9552 -40.08
-75.5941 8.155 -5.5679
44.4049 7.122 -40.1016
7.326 9.024 55.3403
-75.6074 8.0598 -5.5185
-75.6272 7.918 -5.4444
-75.6388 7.8167 -5.4012
-75.6558 7.666 -5.3377
44.3834 7.2379 -40.1231
44.3537 7.4 -40.1528
-75.6796 7.4 -5.2489
44.2883 7.666 -40.2182
-75.6871 7.2881 -5.2211
-75.6983 7.122 -5.179
-75.7119 6.836 -5.1285
-75.7152 6.7188 -5.116
-75.72 6.545 -5.0982
44.2101 7.918 -40.2963
4.4112 6.545 56.1214
4.4007 6.251 56.1242
4.4416 6.836 56.1133
44.1721 8.0169 -40.3344
-75.7211 6.4266 -5.0941
-75.7228 6.251 -5.0878
44.1194 8.155 -40.3871
4.4926 7.122 56.0996
4.482 7.0612 56.1025
44.0768 8.2461 -40.4297
4.5621 7.4 56.081
44.0171 8.373 -40.4894
4.5472 7.341 56.085
-74.5897 0.248 -9.3164
-75.7228 0.248 -5.0878
4.651 7.666 56.0571
4.6323 7.6097 56.0621
43.9699 8.4558 -40.5365
43.9042 8.571 -40.6022
4.7574 7.918 56.0286
4.7348 7.8648 56.0347
25.5053 8.155 -23.3167
43.8531 8.6446 -40.6534
4.8816 8.155 55.9954
4.8556 8.1051 56.0023
25.4273 7.951 -23.3947
25.4147 7.918 -23.4073
43.7823 8.747 -40.7242
43.7276 8.8102 -40.7789
43.6513 8.898 -40.8551
5.021 8.373 55.958
25.3474 7.7011 -23.4746
5.1746 8.571 55.9168
25.3365 7.666 -23.4855
5.3415 8.747 55.8721
43.5937 8.9508 -40.9128
5.5191 8.898 55.8245
5.4821 8.8666 55.8344
25.2717 7.4 -23.5503
5.7069 9.024 55.7742
25.2202 7.122 -23.6018
5.9024 9.123 55.7218
25.1882 6.8757 -23.6338
25.183 6.836 -23.639
6.1041 9.195 55.6677
6.0629 9.1803 55.6788
25.1639 6.5854 -23.6581
25.1607 6.545 -23.6613
4.4007 9.997 56.1242
25.1544 6.2918 -23.6676
25.1534 6.251 -23.6686
-5.875 0.248 58.878
-5.875 9.997 58.878
-57.2047 9.253 60.8023
-57.1434 9.2469 60.8636
-57.0536 9.238 60.9534
4.4007 0.248 56.1242
8.632 0.248 54.9903
-56.9037 9.195 61.1033
-56.844 9.1658 61.163
-56.7564 9.123 61.2506
-56.6983 9.0827 61.3087
-56.6138 9.024 61.3932
26.2755 9.1332 -22.5465
26.2546 9.123 -22.5674
26.1313 9.038 -22.6907
26.1111 9.024 -22.7109
-56.0104 8.155 61.9966
-55.9734 8.0578 62.0336
-55.92 7.918 62.087
25.973 8.898 -22.849
-55.8881 7.8146 62.1189
-55.842 7.666 62.165
-55.7772 7.4 62.2298
25.8428 8.747 -22.9792
-55.7561 7.2858 62.2509
-55.7262 7.122 62.2808
25.7377 8.5957 -23.0843
-55.6894 6.836 62.3176
25.7205 8.571 -23.1015
-55.6674 6.545 62.3396
25.6235 8.4007 -23.1985
25.6077 8.373 -23.2143
-55.66 6.251 62.347
-56.4763 8.898 61.5307
-56.3463 8.747 61.6607
-56.2967 8.6751 61.7103
-56.2245 8.571 61.7825
-56.1784 8.49 61.8286
-56.1122 8.373 61.8948
28.2494 6.5017 -20.5726
28.2561 6.251 -20.5659
-56.0704 8.2837 61.9366
28.2483 6.545 -20.5737
28.226 6.836 -20.596
-58.7473 6.3679 59.2597
-58.7428 6.545 59.2642
-58.75 6.251 59.257
28.1948 7.08 -20.6272
28.1893 7.122 -20.6327
-58.7339 6.6607 59.2731
-58.7207 6.836 59.2863
-58.706 6.9498 59.301
-58.6835 7.122 59.3235
28.1454 7.3592 -20.6766
-58.6631 7.2326 59.3439
-58.6325 7.4 59.3745
28.1379 7.4 -20.6841
28.0726 7.666 -20.7494
27.9944 7.918 -20.8276
27.9166 8.1203 -20.9054
27.9034 8.155 -20.9186
-58.5677 7.666 59.4393
-58.4896 7.918 59.5174
-58.3994 8.155 59.6076
27.8163 8.3412 -21.0057
27.8013 8.373 -21.0207
-58.2973 8.373 59.7097
-58.1852 8.571 59.8218
27.705 8.5422 -21.1171
27.6885 8.571 -21.1335
-58.1366 8.6415 59.8704
-58.0634 8.747 59.9436
27.584 8.7214 -21.238
-58.0111 8.8075 59.9959
-57.9332 8.898 60.0738
-57.8784 8.9486 60.1286
-57.7964 9.024 60.2106
27.5663 8.747 -21.2557
27.4546 8.8761 -21.3674
-57.7389 9.0638 60.2681
27.4356 8.898 -21.3864
-57.6538 9.123 60.3532
-57.5946 9.152 60.4124
-57.5065 9.195 60.5005
-57.3566 9.238 60.6504
27.3179 9.0058 -21.5041
27.298 9.024 -21.524
-58.75 0.248 59.257
27.1757 9.1087 -21.6463
27.155 9.123 -21.667
-55.66 0.248 62.347
27.007 9.195 -21.815
26.8565 9.238 -21.9655
26.7045 9.253 -22.1175
26.5738 9.2401 -22.2482
26.5522 9.238 -22.2698
26.4231 9.2011 -22.3989
12.4308 8.898 80.0948
12.4963 8.8426 80.0773
12.6085 8.747 80.0472
26.4016 9.195 -22.4204
12.7755 8.571 80.0025
12.9291 8.373 79.9613
13.0685 8.155 79.924
28.2561 0.248 -20.5659
13.1142 8.0673 79.9117
13.1924 7.918 79.8908
13.2321 7.8246 79.8801
13.2991 7.666 79.8622
25.1534 0.248 -23.6686
35.696 9.997 -13.126
35.696 0.248 -13.126
42.128 0.248 10.875
42.128 9.997 10.875
13.3319 7.5673 79.8534
13.3879 7.4 79.8384
13.4139 7.2967 79.8314
13.4575 7.122 79.8197
13.4762 7.0157 79.8147
13.5083 6.836 79.8061
13.5387 6.545 79.798
13.5425 6.4356 79.7969
13.5485 6.251 79.7953
10.258 8.747 80.677
10.3213 8.8009 80.6601
10.436 8.898 80.6294
10.6238 9.024 80.579
10.8193 9.123 80.5267
10.8918 9.1489 80.5072
11.0207 9.195 80.4727
11.0945 9.2105 80.4529
11.2262 9.238 80.4176
11.3013 9.2434 80.3975
11.4333 9.253 80.3621
11.5083 9.2476 80.342
11.6407 9.238 80.3066
11.7155 9.2224 80.2865
11.8459 9.195 80.2516
11.9191 9.1688 80.2319
12.0476 9.123 80.1975
12.243 9.024 80.1452
9.3177 6.251 80.929
9.3282 6.545 80.9262
9.3586 6.836 80.9181
9.3766 6.9367 80.9132
9.4091 7.122 80.9045
9.4335 7.22 80.898
9.479 7.4 80.8858
9.5105 7.4938 80.8774
9.5676 7.666 80.8621
9.6051 7.755 80.852
9.6744 7.918 80.8334
9.7184 8.0018 80.8216
9.7981 8.155 80.8003
9.9375 8.373 80.763
10.0911 8.571 80.7218
9.3177 0.248 80.929
13.5485 0.248 79.7953
64.002 0.248 26.7289
62.869 0.248 30.9571
63.8734 8.155 27.2086
63.8876 8.0526 27.1555
63.9065 7.918 27.0851
63.9189 7.8091 27.0387
63.9351 7.666 26.9784
63.9589 7.4 26.8896
63.9669 7.2797 26.8597
63.9776 7.122 26.8198
63.9912 6.836 26.7692
63.9948 6.71 26.7558
63.9993 6.545 26.7389
64.0004 6.4177 26.7349
64.002 6.251 26.7289
63.4911 9.238 28.6356
63.5146 9.2196 28.5477
63.5461 9.195 28.4302
63.6 9.123 28.2289
63.6523 9.024 28.0337
63.674 8.9698 27.953
63.7025 8.898 27.8465
63.723 8.833 27.77
63.7502 8.747 27.6683
63.7695 8.6712 27.5964
63.7949 8.571 27.5017
63.8361 8.373 27.3479
62.936 7.666 30.7073
62.9481 7.7725 30.662
62.9646 7.918 30.6005
62.9785 8.0182 30.5485
62.9977 8.155 30.477
63.035 8.373 30.3377
63.0762 8.571 30.1839
63.0952 8.6456 30.113
63.1209 8.747 30.0172
63.1411 8.8111 29.9418
63.1686 8.898 29.8391
63.19 8.9516 29.7593
63.2187 9.024 29.6519
63.241 9.0661 29.5688
63.2712 9.123 29.4562
63.2942 9.1537 29.3704
63.325 9.195 29.2554
63.3485 9.2133 29.1678
63.38 9.238 29.0501
63.4036 9.2444 28.9619
63.4355 9.253 28.843
63.4593 9.2466 28.7542
62.869 6.251 30.9571
62.8718 6.545 30.9466
62.8753 6.6678 30.9337
62.8799 6.836 30.9164
62.8935 7.122 30.8659
62.9013 7.2394 30.8366
62.9122 7.4 30.796
-29.876 0.248 52.446
-29.876 9.997 52.446
-40.9334 8.155 41.3886
-40.8313 8.373 41.4907
-40.7192 8.571 41.6028
-40.5976 8.747 41.7244
-40.6177 8.718 41.7043
-40.4672 8.898 41.8548
-40.4885 8.8732 41.8335
-40.3306 9.024 41.9914
-40.353 9.0034 41.969
-40.1878 9.123 42.1342
-40.211 9.1069 42.111
-40.0407 9.195 42.2813
-40.0647 9.1833 42.2573
-39.8908 9.238 42.4312
-39.7389 9.253 42.5831
-39.5876 9.238 42.7344
-39.6118 9.2404 42.7102
41.3691 0.248 -43.1373
-39.4376 9.195 42.8844
41.4874 7.4 -43.019
41.4359 7.122 -43.0705
41.4201 7.0004 -43.0863
41.3988 6.836 -43.1076
-39.3141 9.1345 43.0079
41.3893 6.7123 -43.1171
41.3762 6.545 -43.1302
41.3731 6.42 -43.1333
41.3691 6.251 -43.1373
-38.8803 8.747 43.4417
43.454 9.0655 -41.0524
43.3707 9.123 -41.1358
-38.7587 8.571 43.5633
-38.7778 8.5986 43.5442
-38.6462 8.373 43.6758
43.2227 9.195 -41.2837
-38.6637 8.4039 43.6583
43.0722 9.238 -41.4342
-38.5442 8.155 43.7778
-38.56 8.189 43.762
41.721 8.155 -42.7854
41.6825 8.0544 -42.8239
41.6304 7.918 -42.876
-38.4539 7.918 43.8681
-38.468 7.9548 43.854
41.5972 7.811 -42.9092
41.5522 7.666 -42.9542
-38.3762 7.666 43.9458
-49.8539 6.545 -4.1409
-38.3883 7.7051 43.9337
-49.8511 6.251 -4.1514
-49.8621 6.836 -4.1103
-38.3114 7.4 44.0106
-49.8607 6.7856 -4.1155
-38.2602 7.122 44.0618
-38.268 7.1649 44.054
42.9202 9.253 -41.5862
42.8561 9.2467 -41.6504
42.7681 9.238 -41.7383
-38.2233 6.836 44.0987
-38.2014 6.545 44.1206
42.7047 9.2199 -41.8017
42.6173 9.195 -41.8891
-38.1939 6.251 44.1281
42.5553 9.1646 -41.9511
42.4701 9.123 -42.0363
42.4095 9.0812 -42.097
-39.2906 9.123 43.0314
42.3268 9.024 -42.1796
-39.1478 9.024 43.1742
-39.1703 9.0397 43.1517
42.1887 8.898 -42.3177
42.0585 8.747 -42.4479
-39.0103 8.898 43.3117
42.0068 8.6725 -42.4996
41.936 8.571 -42.5704
41.8882 8.4871 -42.6182
41.8234 8.373 -42.6829
-41.277 6.545 41.045
-41.2782 6.4956 41.0438
-49.8757 7.122 -4.0597
-41.284 6.251 41.038
-49.8943 7.4 -3.9902
-49.891 7.3519 -4.0023
-41.2546 6.836 41.0674
-41.2583 6.7872 41.0637
-49.9181 7.666 -3.9015
-41.2177 7.122 41.1043
-41.2239 7.0741 41.098
-49.9468 7.918 -3.7944
-49.9418 7.8746 -3.8128
-49.9798 8.155 -3.6713
-49.974 8.1142 -3.6926
-41.1665 7.4 41.1555
-41.175 7.3535 41.147
-41.1017 7.666 41.2203
-5.875 44.473 -60.782
29.953 44.473 -51.181
56.181 44.473 -24.953
-41.0235 7.918 41.2985
65.782 44.473 10.875
-50.0171 8.373 -3.5319
56.181 44.473 46.703
-50.0583 8.571 -3.3782
29.953 44.473 72.931
-5.875 44.473 82.532
-50.1031 8.747 -3.2111
-50.0955 8.7169 -3.2395
-41.703 44.473 72.931
-50.1507 8.898 -3.0334
-67.931 44.473 46.703
-50.1425 8.8723 -3.0638
-77.532 44.473 10.875
-67.931 44.473 -24.953
-41.703 44.473 -51.181
-50.201 9.024 -2.8458
-50.1925 9.0026 -2.8775
-50.2533 9.123 -2.6504
-50.2444 9.1062 -2.6837
-5.875 44.473 -54.759
26.942 44.473 -45.966
50.966 44.473 -21.942
-50.3072 9.195 -2.4493
59.759 44.473 10.875
-50.2982 9.1828 -2.4832
50.966 44.473 43.692
-50.3623 9.238 -2.2439
-50.353 9.2308 -2.2785
26.942 44.473 67.716
-50.4083 9.2505 -2.0721
-5.875 44.473 76.509
-47.446 0.248 34.876
-47.446 9.997 34.876
-38.692 44.473 67.716
-62.716 44.473 43.692
-41.284 0.248 41.038
-50.8557 8.155 -0.4025
-71.509 44.473 10.875
-38.1939 0.248 44.1281
-50.8887 7.918 -0.2794
-50.8833 7.9567 -0.2996
-62.716 44.473 -21.942
-50.9175 7.666 -0.1722
-50.9128 7.707 -0.1895
-38.692 44.473 -45.966
-50.9413 7.4 -0.0834
-50.9599 7.122 -0.0141
-50.9568 7.1672 -0.0255
-50.4176 9.253 -2.0373
-5.875 38.759 -54.759
26.942 38.759 -45.966
50.966 38.759 -21.942
-50.4733 9.238 -1.8298
-50.464 9.2405 -1.8645
59.759 38.759 10.875
50.966 38.759 43.692
-50.5283 9.195 -1.6245
-50.5191 9.2022 -1.6587
26.942 38.759 67.716
-5.875 38.759 76.509
-50.5822 9.123 -1.4232
-38.692 38.759 67.716
-50.6345 9.024 -1.228
-62.716 38.759 43.692
-50.6848 8.898 -1.0404
-50.6765 8.9188 -1.0712
-71.509 38.759 10.875
-62.716 38.759 -21.942
-50.7325 8.747 -0.8625
-50.7246 8.7719 -0.8919
-38.692 38.759 -45.966
-50.7772 8.571 -0.6956
-50.7699 8.5999 -0.7229
-5.875 38.759 -49.006
24.065 38.759 -40.983
-50.8184 8.373 -0.5419
45.983 38.759 -19.065
54.006 38.759 10.875
45.983 38.759 40.815
-50.9734 6.836 0.0365
24.065 38.759 62.733
-50.9817 6.545 0.0673
-50.9804 6.5922 0.0624
-5.875 38.759 70.756
-35.815 38.759 62.733
-50.9844 6.251 0.0776
-50.984 6.2987 0.0759
-57.733 38.759 40.815
-65.756 38.759 10.875
-57.733 38.759 -19.065
-49.8511 9.997 -4.1514
-35.815 38.759 -40.983
-47.446 0.248 -13.126
-47.446 9.997 -13.126
-49.8511 0.248 -4.1514
-50.9844 0.248 0.0776
-53.878 9.997 10.875
-53.878 0.248 10.875
-5.875 29.997 -49.006
24.065 29.997 -40.983
45.983 29.997 -19.065
54.006 29.997 10.875
45.983 29.997 40.815
24.065 29.997 62.733
-5.875 29.997 70.756
-35.815 29.997 62.733
-57.733 29.997 40.815
-65.756 29.997 10.875
-57.733 29.997 -19.065
-35.815 29.997 -40.983
-5.875 29.997 -44.006
21.565 29.997 -36.653
41.653 29.997 -16.565
49.006 29.997 10.875
41.653 29.997 38.315
21.565 29.997 58.403
-5.875 29.997 65.756
-33.315 29.997 58.403
-53.403 29.997 38.315
-60.756 29.997 10.875
-53.403 29.997 -16.565
-33.315 29.997 -36.653
-5.875 19.998 -44.006
21.565 19.998 -36.653
41.653 19.998 -16.565
49.006 19.998 10.875
41.653 19.998 38.315
21.565 19.998 58.403
-5.875 19.998 65.756
-33.315 19.998 58.403
-53.403 19.998 38.315
-60.756 19.998 10.875
-53.403 19.998 -16.565
-33.315 19.998 -36.653
-5.875 19.998 -41.05
20.087 19.998 -34.093
39.093 19.998 -15.087
46.05 19.998 10.875
39.093 19.998 36.837
20.087 19.998 55.843
-5.875 19.998 62.8
-31.837 19.998 55.843
-50.843 19.998 36.837
-57.8 19.998 10.875
-50.843 19.998 -15.087
-31.837 19.998 -34.093
-5.875 9.997 -41.05
20.087 9.997 -34.093
39.093 9.997 -15.087
46.05 9.997 10.875
39.093 9.997 36.837
20.087 9.997 55.843
-5.875 9.997 62.8
-31.837 9.997 55.843
-50.843 9.997 36.837
-57.8 9.997 10.875
-50.843 9.997 -15.087
-31.837 9.997 -34.093
-5.875 9.997 -37.128
18.126 9.997 -30.696
-29.876 9.997 -30.696
-16.1024 9.997 -34.3872
-5.875 0.248 -37.128
18.126 0.248 -30.696
-29.876 0.248 -30.696
-16.1122 6.545 -34.3845
-16.1111 6.5142 -34.3848
-16.1024 6.251 -34.3872
-16.143 6.836 -34.3763
-16.193 7.122 -34.3629
-16.2631 7.4 -34.3441
-16.3525 7.666 -34.3201
-16.3431 7.6382 -34.3227
-16.4592 7.918 -34.2915
-16.5833 8.155 -34.2583
-16.5704 8.1304 -34.2617
-16.7227 8.373 -34.2209
-16.8767 8.571 -34.1797
-17.0438 8.747 -34.1349
-17.2225 8.898 -34.087
-17.2041 8.8825 -34.0919
-17.41 9.024 -34.0367
-17.6061 9.123 -33.9842
-17.8079 9.195 -33.9301
-18.0138 9.238 -33.875
-17.993 9.2337 -33.8805
-18.2214 9.253 -33.8193
-18.4291 9.238 -33.7636
-19.8595 8.155 -33.3803
-19.9836 7.918 -33.347
-20.0904 7.666 -33.3184
-20.1797 7.4 -33.2945
-20.2489 7.122 -33.2759
-20.2998 6.836 -33.2623
-20.3307 6.545 -33.254
-20.3404 6.251 -33.2514
-18.6349 9.195 -33.7085
-18.8368 9.123 -33.6544
-19.0329 9.024 -33.6018
-19.2204 8.898 -33.5516
-19.3991 8.747 -33.5037
-19.5653 8.571 -33.4592
-19.549 8.5882 -33.4635
-19.7202 8.373 -33.4176
-19.7051 8.3923 -33.4217
-16.1024 0.248 -34.3872
-20.3404 0.248 -33.2514
39.0117 8.747 22.5033
39.0053 8.7673 22.5273
39.0565 8.571 22.3363
39.0505 8.5946 22.3586
39.0977 8.373 22.1826
39.135 8.155 22.0433
39.168 7.918 21.9201
39.1636 7.9495 21.9366
39.1968 7.666 21.8129
39.193 7.6994 21.827
39.2205 7.4 21.7242
39.2391 7.122 21.6548
39.2366 7.1587 21.6641
39.2527 6.836 21.6043
39.2609 6.545 21.5734
39.2599 6.5834 21.5774
39.2631 6.2898 21.5653
38.9138 9.024 22.8687
38.9641 8.898 22.6811
38.9573 8.915 22.7063
38.4803 9.024 24.4865
38.4733 9.0064 24.5126
38.5253 9.1092 24.3185
3 19 2 7
3 4 6 3
3 5 6 4
3 7 2 6
3 3 6 2
3 21 23 18
3 22 2 19
3 22 18 2
3 23 20 18
3 20 2 18
3 25 27 24
3 26 29 25
3 46 24 27
3 28 47 26
3 27 25 29
3 32 47 30
3 28 30 47
3 31 32 30
3 44 34 33
3 31 33 34
3 32 31 34
3 44 33 35
3 36 37 35
3 44 35 37
3 38 45 36
3 37 36 39
3 38 40 45
3 41 42 40
3 45 40 42
3 24 46 41
3 42 41 43
3 39 36 45
3 43 41 46
3 29 26 47
3 22 19 49
3 22 50 51
3 53 22 51
3 54 22 53
3 55 22 54
3 56 22 55
3 57 22 56
3 58 22 57
3 59 46 58
3 63 64 46
3 64 65 46
3 65 66 46
3 62 63 46
3 66 67 46
3 67 68 46
3 60 46 59
3 68 69 46
3 69 70 46
3 62 46 61
3 70 71 46
3 73 74 43
3 75 43 74
3 77 43 75
3 78 43 77
3 82 43 81
3 81 43 78
3 83 43 82
3 85 43 83
3 76 43 85
3 88 43 76
3 89 19 88
3 90 19 89
3 43 88 19
3 94 19 91
3 43 46 71
3 72 73 43
3 71 72 43
3 91 19 90
3 95 19 94
3 22 49 52
3 52 50 22
3 61 46 60
3 22 58 46
3 19 95 96
3 19 96 48
3 48 49 19
3 43 7 42
3 43 19 7
3 110 111 7
3 113 7 111
3 118 119 120
3 118 120 121
3 124 7 115
3 7 113 114
3 128 7 127
3 119 126 122
3 122 123 119
3 125 126 119
3 132 125 119
3 136 42 133
3 130 42 129
3 131 132 119
3 138 42 137
3 137 42 136
3 133 42 130
3 134 135 119
3 135 131 119
3 142 134 119
3 139 42 138
3 141 142 119
3 147 42 146
3 143 141 119
3 145 143 119
3 149 42 147
3 150 42 149
3 154 42 153
3 153 42 150
3 146 42 140
3 156 42 154
3 157 42 156
3 194 119 155
3 160 42 157
3 45 42 161
3 158 159 119
3 155 119 159
3 162 158 119
3 123 151 119
3 151 165 119
3 165 162 119
3 169 45 168
3 172 45 169
3 173 45 172
3 179 45 178
3 167 168 45
3 170 257 175
3 171 257 170
3 183 45 182
3 119 186 180
3 119 180 257
3 188 45 183
3 190 185 119
3 119 185 186
3 192 45 188
3 189 190 119
3 196 45 195
3 173 178 45
3 194 189 119
3 198 6 197
3 201 6 198
3 204 6 203
3 203 6 201
3 195 45 192
3 205 6 204
3 207 6 206
3 205 206 6
3 6 207 213
3 6 213 214
3 211 209 261
3 139 140 42
3 163 45 161
3 164 45 163
3 166 45 164
3 167 45 166
3 182 45 179
3 197 6 196
3 45 196 6
3 160 161 42
3 7 222 108
3 7 108 109
3 109 110 7
3 127 7 124
3 129 42 128
3 114 115 7
3 7 128 42
3 223 6 214
3 223 222 6
3 7 6 222
3 219 221 261
3 221 216 261
3 216 217 261
3 39 45 5
3 45 6 5
3 229 224 261
3 233 228 261
3 228 229 261
3 590 593 147
3 233 261 232
3 232 261 239
3 246 243 257
3 241 257 243
3 248 245 257
3 245 246 257
3 254 250 257
3 250 248 257
3 257 171 253
3 253 254 257
3 174 257 181
3 181 257 180
3 174 175 257
3 241 239 257
3 257 239 261
3 224 225 261
3 225 219 261
3 217 211 261
3 209 210 261
3 260 261 210
3 260 210 265
3 144 145 119
3 119 118 144
3 266 144 118
3 269 37 268
3 270 37 269
3 271 37 270
3 278 37 277
3 280 4 278
3 276 277 37
3 281 4 280
3 282 4 281
3 285 4 284
3 289 4 287
3 296 37 295
3 294 37 293
3 297 37 296
3 298 37 297
3 294 295 37
3 37 298 301
3 276 37 301
3 284 4 282
3 287 4 285
3 292 4 289
3 305 5 304
3 312 5 311
3 315 5 314
3 323 39 322
3 327 39 326
3 643 647 179
3 326 39 323
3 333 39 331
3 334 39 333
3 335 39 334
3 336 39 335
3 330 39 327
3 341 39 339
3 339 39 336
3 330 331 39
3 343 39 342
3 344 39 343
3 341 342 39
3 39 344 262
3 263 37 262
3 267 37 264
3 39 262 37
3 267 268 37
3 271 293 37
3 264 37 263
3 306 304 5
3 5 305 309
3 5 309 310
3 310 311 5
3 312 314 5
3 5 315 321
3 321 322 5
3 5 322 39
3 350 4 292
3 37 278 4
3 5 4 350
3 5 350 347
3 347 306 5
3 37 4 44
3 3 44 4
3 165 362 162
3 358 34 357
3 359 34 358
3 361 34 359
3 362 34 361
3 363 34 362
3 363 365 34
3 368 2 367
3 370 371 372
3 370 372 373
3 375 2 374
3 374 2 368
3 376 2 375
3 366 34 365
3 379 2 378
3 377 2 376
3 381 2 380
3 385 44 384
3 386 44 385
3 383 384 44
3 387 44 386
3 389 44 388
3 388 44 387
3 390 44 389
3 393 44 392
3 399 34 398
3 357 34 400
3 400 34 399
3 397 398 34
3 407 3 406
3 408 409 3
3 361 158 162
3 410 411 3
3 44 3 411
3 412 44 411
3 409 410 3
3 413 44 412
3 415 44 414
3 383 44 415
3 391 44 390
3 391 392 44
3 394 34 393
3 395 34 394
3 397 34 396
3 396 34 395
3 367 2 366
3 378 2 377
3 380 2 379
3 44 393 34
3 3 401 402
3 3 402 403
3 3 403 404
3 3 404 405
3 405 406 3
3 414 44 413
3 407 408 3
3 382 2 381
3 417 2 382
3 34 366 2
3 3 2 417
3 3 417 416
3 416 401 3
3 34 2 20
3 20 32 34
3 446 447 20
3 418 419 23
3 422 47 421
3 423 23 422
3 424 23 423
3 421 47 420
3 425 23 424
3 427 23 426
3 428 23 427
3 426 23 425
3 430 23 429
3 429 23 428
3 431 23 430
3 432 23 431
3 434 47 433
3 438 47 437
3 439 47 438
3 440 47 439
3 443 47 442
3 444 47 443
3 442 47 441
3 420 47 444
3 481 484 334
3 448 32 447
3 450 32 449
3 449 32 448
3 451 32 450
3 20 447 32
3 453 32 452
3 451 452 32
3 454 32 453
3 32 454 455
3 456 32 455
3 457 32 456
3 461 32 460
3 459 32 458
3 464 32 463
3 433 47 466
3 471 20 470
3 472 20 471
3 473 20 472
3 457 458 32
3 460 32 459
3 462 32 461
3 462 463 32
3 32 464 465
3 466 47 465
3 435 47 434
3 436 47 435
3 437 47 436
3 441 47 440
3 23 419 20
3 419 467 20
3 467 468 20
3 468 469 20
3 469 470 20
3 473 445 20
3 446 20 445
3 32 465 47
3 418 23 432
3 47 422 23
3 21 29 23
3 23 29 47
3 388 254 389
3 18 148 21
3 152 505 29
3 187 21 184
3 176 184 21
3 474 475 261
3 474 261 260
3 191 193 21
3 193 199 21
3 200 21 199
3 215 29 212
3 212 29 208
3 480 478 607
3 478 477 607
3 218 29 215
3 227 29 226
3 226 29 220
3 202 21 200
3 643 179 178
3 231 236 29
3 202 208 21
3 482 607 481
3 238 244 29
3 237 238 29
3 483 484 607
3 484 481 607
3 244 152 29
3 236 237 29
3 188 183 650
3 488 485 607
3 486 607 485
3 487 488 607
3 489 487 607
3 650 611 188
3 21 148 177
3 177 176 21
3 187 191 21
3 220 29 218
3 607 475 490
3 18 493 148
3 491 475 494
3 492 490 475
3 496 18 495
3 494 475 499
3 497 18 496
3 498 18 497
3 501 502 18
3 500 501 18
3 227 231 29
3 617 620 198
3 506 510 29
3 505 506 29
3 620 622 201
3 510 512 29
3 512 531 29
3 511 507 475
3 507 508 475
3 504 475 508
3 27 29 531
3 514 509 475
3 509 511 475
3 517 27 516
3 18 27 520
3 521 18 520
3 495 18 521
3 518 519 475
3 519 513 475
3 513 514 475
3 515 516 27
3 518 475 524
3 528 523 668
3 527 522 475
3 533 27 532
3 526 111 110
3 529 530 475
3 530 527 475
3 534 529 475
3 535 534 475
3 540 27 539
3 536 27 533
3 526 555 111
3 541 27 540
3 543 27 541
3 539 27 537
3 547 27 546
3 550 551 27
3 549 550 27
3 561 565 124
3 552 27 551
3 544 545 475
3 542 475 545
3 548 544 475
3 27 552 515
3 531 532 27
3 536 537 27
3 547 549 27
3 543 546 27
3 498 500 18
3 517 520 27
3 548 475 504
3 18 502 503
3 18 503 493
3 21 208 29
3 606 607 556
3 554 556 607
3 578 582 136
3 560 553 607
3 558 668 557
3 22 46 27
3 22 27 18
3 564 565 668
3 561 668 565
3 562 563 607
3 25 24 572
3 571 572 24
3 25 573 26
3 572 573 25
3 566 567 668
3 567 564 668
3 575 28 573
3 26 573 28
3 568 607 570
3 28 575 30
3 575 577 30
3 584 140 139
3 570 607 574
3 566 668 576
3 579 31 30
3 577 579 30
3 31 579 33
3 580 33 579
3 33 580 35
3 583 35 580
3 35 585 36
3 583 585 35
3 574 607 476
3 584 591 140
3 587 38 36
3 587 36 585
3 581 582 665
3 582 578 665
3 578 576 665
3 38 587 40
3 588 40 587
3 40 589 41
3 588 589 40
3 586 581 665
3 41 589 571
3 41 571 24
3 482 479 607
3 479 480 607
3 594 595 571
3 572 571 595
3 590 591 665
3 591 584 665
3 584 586 665
3 596 573 595
3 573 572 595
3 598 575 596
3 592 593 665
3 593 590 665
3 598 600 575
3 577 575 600
3 597 599 665
3 599 592 665
3 522 524 475
3 542 499 475
3 491 492 475
3 490 489 607
3 603 579 600
3 577 600 579
3 605 580 603
3 605 608 580
3 601 602 665
3 602 597 665
3 604 601 665
3 585 583 609
3 608 609 583
3 580 608 583
3 486 483 607
3 477 476 607
3 569 607 568
3 569 562 607
3 563 559 607
3 559 560 607
3 553 554 607
3 606 556 610
3 612 587 609
3 538 535 475
3 475 474 538
3 613 538 474
3 616 587 612
3 589 588 619
3 616 619 588
3 587 616 588
3 594 571 619
3 571 589 619
3 614 615 671
3 611 671 615
3 579 603 580
3 618 614 671
3 617 618 671
3 585 609 587
3 620 671 622
3 573 596 575
3 595 594 625
3 624 625 594
3 626 596 595
3 625 626 595
3 629 598 626
3 596 626 598
3 623 665 628
3 598 629 600
3 629 630 600
3 665 671 627
3 633 603 600
3 633 600 630
3 634 605 603
3 634 603 633
3 636 608 605
3 636 605 634
3 635 631 671
3 608 636 609
3 638 609 636
3 641 612 609
3 641 609 638
3 640 637 671
3 637 635 671
3 612 641 616
3 642 616 641
3 671 639 640
3 645 619 616
3 642 645 616
3 619 645 624
3 619 624 594
3 639 644 173
3 624 648 625
3 649 625 648
3 643 644 671
3 644 639 671
3 651 626 649
3 626 625 649
3 646 647 671
3 652 626 651
3 621 622 671
3 620 617 671
3 671 611 650
3 650 646 671
3 629 652 630
3 653 630 652
3 655 630 653
3 633 630 655
3 658 633 655
3 657 654 671
3 654 621 671
3 659 636 658
3 662 638 659
3 634 658 636
3 656 657 671
3 661 656 671
3 663 638 662
3 636 659 638
3 614 196 195
3 664 642 663
3 647 643 671
3 631 632 671
3 627 628 665
3 623 604 665
3 632 627 671
3 666 645 664
3 645 642 664
3 641 663 642
3 624 645 648
3 614 618 196
3 633 658 634
3 668 665 576
3 561 557 668
3 558 555 668
3 555 526 668
3 526 528 668
3 523 525 668
3 667 668 525
3 667 525 669
3 638 663 641
3 666 648 645
3 660 661 671
3 671 672 660
3 670 660 672
3 626 652 629
3 649 648 674
3 673 674 648
3 675 651 649
3 674 675 649
3 676 652 675
3 651 675 652
3 653 652 676
3 677 653 676
3 678 655 653
3 678 653 677
3 655 678 658
3 679 658 678
3 658 679 659
3 680 659 679
3 222 669 108
3 525 108 669
3 681 662 659
3 680 681 659
3 223 214 670
3 662 681 663
3 682 663 681
3 663 682 664
3 683 664 682
3 664 683 666
3 684 666 683
3 666 684 673
3 666 673 648
3 673 685 674
3 686 674 685
3 241 415 239
3 687 675 686
3 675 674 686
3 688 675 687
3 689 677 688
3 690 677 689
3 676 688 677
3 678 677 690
3 691 678 690
3 115 114 557
3 692 680 691
3 693 681 692
3 681 680 692
3 679 691 680
3 694 681 693
3 695 683 694
3 696 684 695
3 682 694 683
3 780 49 781
3 673 684 685
3 683 695 684
3 678 691 679
3 681 694 682
3 696 685 684
3 675 688 676
3 686 685 698
3 697 698 685
3 699 687 686
3 698 699 686
3 700 688 699
3 687 699 688
3 559 563 310
3 688 700 689
3 701 689 700
3 702 690 689
3 701 702 689
3 690 703 691
3 702 703 690
3 691 704 692
3 703 704 691
3 692 704 693
3 705 693 704
3 253 390 389
3 706 694 693
3 706 693 705
3 694 706 695
3 707 695 706
3 708 696 695
3 707 708 695
3 697 685 708
3 696 708 685
3 697 709 698
3 710 698 709
3 711 699 710
3 699 698 710
3 712 699 711
3 713 701 712
3 714 702 713
3 702 701 713
3 700 712 701
3 703 702 715
3 714 715 702
3 716 704 715
3 703 715 704
3 717 704 716
3 319 212 208
3 718 705 717
3 704 717 705
3 185 398 397
3 719 707 718
3 708 707 720
3 719 720 707
3 706 718 707
3 709 708 720
3 705 718 706
3 708 709 697
3 699 712 700
3 158 359 159
3 358 159 359
3 722 710 721
3 710 709 721
3 357 155 358
3 710 722 711
3 723 711 722
3 158 361 359
3 711 723 724
3 711 724 712
3 329 332 227
3 712 725 713
3 724 725 712
3 726 714 713
3 725 726 713
3 726 727 714
3 715 714 727
3 715 728 716
3 727 728 715
3 716 729 717
3 728 729 716
3 730 718 717
3 729 730 717
3 719 718 730
3 731 719 730
3 719 732 720
3 731 732 719
3 720 732 721
3 720 721 709
3 734 722 733
3 734 370 722
3 721 733 722
3 724 723 373
3 370 373 723
3 722 370 723
3 373 120 725
3 726 725 119
3 120 119 725
3 119 257 726
3 727 726 257
3 727 257 261
3 728 261 475
3 607 729 475
3 729 728 475
3 730 729 671
3 607 671 729
3 730 665 731
3 668 731 665
3 671 665 730
3 735 732 668
3 731 668 732
3 733 721 736
3 736 732 735
3 727 261 728
3 732 736 721
3 373 725 724
3 737 738 734
3 737 734 733
3 367 126 368
3 366 122 367
3 235 734 240
3 132 374 125
3 242 240 734
3 251 249 734
3 249 247 734
3 247 242 734
3 252 251 734
3 255 252 734
3 377 134 378
3 256 255 734
3 258 256 734
3 378 142 379
3 274 273 734
3 272 734 273
3 275 274 734
3 279 275 734
3 286 283 734
3 283 279 734
3 290 288 734
3 386 248 387
3 387 250 388
3 234 230 734
3 291 734 230
3 290 734 291
3 235 234 734
3 371 370 300
3 299 300 370
3 370 307 303
3 313 308 370
3 308 307 370
3 316 313 370
3 318 370 319
3 316 370 317
3 317 370 318
3 324 320 370
3 319 370 320
3 396 186 397
3 325 324 370
3 329 328 370
3 328 325 370
3 329 370 332
3 340 338 370
3 337 370 338
3 346 345 370
3 345 340 370
3 349 348 370
3 348 346 370
3 351 349 370
3 351 370 352
3 734 354 353
3 734 356 355
3 734 355 354
3 734 272 360
3 360 356 734
3 288 286 734
3 370 734 353
3 352 370 353
3 337 332 370
3 303 302 370
3 302 299 370
3 371 300 364
3 258 734 259
3 734 738 259
3 369 259 738
3 546 543 279
3 241 383 415
3 384 246 385
3 245 386 385
3 551 550 290
3 170 392 391
3 392 175 393
3 181 394 174
3 92 93 472
3 472 471 92
3 48 770 781
3 112 419 117
3 216 405 217
3 112 467 419
3 503 502 259
3 203 201 622
3 414 239 415
3 545 544 270
3 210 402 401
3 545 270 269
3 403 211 404
3 214 661 660
3 404 217 405
3 199 193 313
3 432 798 116
3 221 407 406
3 200 199 316
3 221 406 216
3 405 216 406
3 407 219 408
3 225 409 408
3 214 660 670
3 739 735 668
3 739 668 667
3 737 733 742
3 741 742 733
3 416 265 210
3 210 401 416
3 743 740 733
3 328 329 226
3 328 226 220
3 747 745 733
3 439 438 800
3 745 744 733
3 748 733 750
3 746 733 748
3 750 733 749
3 749 733 751
3 300 299 177
3 755 753 736
3 752 751 736
3 753 752 736
3 754 755 736
3 756 754 736
3 524 280 278
3 758 757 736
3 757 756 736
3 760 758 736
3 759 760 736
3 316 317 200
3 763 735 764
3 765 764 735
3 766 765 735
3 768 767 735
3 769 768 735
3 276 301 513
3 513 519 276
3 773 772 735
3 771 735 772
3 775 774 735
3 774 773 735
3 524 522 280
3 779 776 735
3 776 777 735
3 777 775 735
3 529 285 284
3 767 766 735
3 778 735 763
3 779 735 778
3 771 762 735
3 736 735 762
3 736 762 761
3 761 759 736
3 476 323 322
3 298 297 509
3 440 439 783
3 746 747 733
3 744 743 733
3 740 741 733
3 780 737 742
3 736 751 733
3 476 477 323
3 441 440 782
3 781 770 739
3 735 739 770
3 770 769 735
3 441 782 785
3 292 538 613
3 482 333 331
3 482 481 333
3 266 417 144
3 382 144 417
3 114 113 558
3 434 433 15
3 610 306 347
3 282 281 527
3 350 292 613
3 774 775 77
3 672 606 610
3 672 610 613
3 474 260 613
3 672 613 260
3 672 260 265
3 672 265 266
3 672 266 118
3 672 118 121
3 672 121 112
3 672 112 117
3 672 117 372
3 672 372 371
3 672 371 364
3 672 364 369
3 672 369 738
3 672 738 737
3 672 737 780
3 781 670 780
3 739 669 781
3 667 669 739
3 669 670 781
3 672 780 670
3 775 777 78
3 81 78 777
3 80 79 467
3 777 776 81
3 79 84 468
3 493 369 148
3 347 613 610
3 416 417 265
3 266 265 417
3 97 445 473
3 669 222 670
3 223 670 222
3 91 90 767
3 350 613 347
3 97 98 445
3 767 768 91
3 581 586 138
3 146 140 591
3 324 325 218
3 218 215 324
3 780 742 49
3 451 103 104
3 48 96 770
3 418 117 419
3 803 802 456
3 157 156 601
3 301 298 514
3 467 112 80
3 418 432 117
3 116 117 432
3 48 781 49
3 284 282 530
3 741 740 50
3 289 287 535
3 535 538 289
3 53 744 54
3 306 610 556
3 746 57 56
3 672 671 607
3 672 607 606
3 746 748 57
3 752 753 62
3 64 63 755
3 757 67 66
3 227 226 329
3 70 69 759
3 759 761 70
3 312 562 569
3 75 74 773
3 53 51 743
3 53 743 744
3 748 750 58
3 750 749 59
3 791 790 423
3 62 61 752
3 63 62 753
3 755 754 64
3 66 756 757
3 753 755 63
3 798 432 431
3 203 622 621
3 55 54 745
3 56 747 746
3 745 747 55
3 56 55 747
3 235 240 517
3 531 512 353
3 772 773 74
3 77 75 774
3 78 77 775
3 275 543 541
3 110 109 528
3 51 50 740
3 294 293 504
3 50 52 741
3 742 741 52
3 740 743 51
3 66 65 756
3 744 745 54
3 68 67 758
3 68 758 760
3 58 57 748
3 59 58 750
3 60 59 749
3 129 128 567
3 749 751 60
3 61 60 751
3 752 61 751
3 65 64 754
3 218 325 220
3 591 590 146
3 147 146 590
3 320 324 215
3 754 756 65
3 150 149 592
3 95 94 769
3 95 769 770
3 757 758 67
3 149 147 593
3 69 68 760
3 328 220 325
3 69 760 759
3 326 323 477
3 71 70 761
3 477 478 326
3 72 71 762
3 237 338 340
3 155 357 194
3 762 771 72
3 541 540 274
3 73 72 771
3 478 480 327
3 338 237 236
3 108 525 523
3 549 547 286
3 90 766 767
3 94 91 768
3 768 769 94
3 558 557 114
3 87 471 470
3 761 762 71
3 557 561 115
3 87 92 471
3 76 85 763
3 772 74 73
3 73 771 772
3 567 566 129
3 100 101 448
3 283 286 547
3 75 773 774
3 90 89 766
3 133 130 576
3 82 81 776
3 83 82 779
3 778 763 85
3 453 452 105
3 763 764 76
3 105 106 453
3 779 778 83
3 327 326 478
3 776 779 82
3 764 88 76
3 764 765 88
3 89 88 765
3 765 766 89
3 336 335 483
3 85 83 778
3 770 96 95
3 376 135 377
3 191 187 307
3 339 336 486
3 52 49 742
3 364 148 369
3 552 291 230
3 517 516 235
3 786 444 443
3 444 786 787
3 208 202 318
3 520 517 240
3 109 108 523
3 520 240 242
3 424 423 790
3 523 528 109
3 110 528 526
3 113 111 555
3 275 279 543
3 496 495 249
3 794 426 425
3 279 283 546
3 267 264 494
3 122 366 123
3 793 795 427
3 368 126 125
3 249 251 496
3 428 427 795
3 126 367 122
3 555 558 113
3 797 796 429
3 561 124 115
3 795 797 428
3 429 428 797
3 501 500 256
3 134 377 135
3 127 124 565
3 135 376 131
3 128 127 564
3 565 564 127
3 142 378 134
3 305 554 553
3 379 142 141
3 566 130 129
3 420 444 787
3 143 380 141
3 379 141 380
3 554 304 556
3 787 789 420
3 421 420 789
3 501 256 258
3 381 145 382
3 144 382 145
3 380 143 381
3 145 381 143
3 789 788 421
3 362 165 363
3 564 567 128
3 123 365 151
3 363 151 365
3 365 123 366
3 566 576 130
3 791 423 422
3 578 136 133
3 368 125 374
3 131 375 132
3 374 132 375
3 137 136 582
3 375 131 376
3 794 793 426
3 531 353 354
3 356 360 536
3 390 171 391
3 355 356 533
3 174 393 175
3 537 536 360
3 360 272 537
3 430 796 431
3 185 397 186
3 398 185 190
3 189 399 190
3 274 275 541
3 14 15 433
3 133 576 578
3 159 358 155
3 361 162 362
3 331 330 479
3 480 479 330
3 151 363 165
3 137 582 581
3 16 17 435
3 436 435 17
3 330 327 480
3 176 177 299
3 299 302 176
3 184 176 302
3 547 546 283
3 334 333 481
3 799 801 437
3 302 303 184
3 308 193 191
3 390 253 171
3 549 286 288
3 308 313 193
3 335 334 484
3 552 551 291
3 215 212 320
3 153 150 599
3 592 599 150
3 99 447 446
3 599 597 153
3 319 320 212
3 400 194 357
3 402 209 403
3 340 238 237
3 447 99 100
3 100 448 447
3 244 238 345
3 340 345 238
3 345 346 244
3 102 450 449
3 161 160 623
3 102 103 450
3 225 408 219
3 297 296 511
3 104 452 451
3 152 244 346
3 104 105 452
3 234 235 516
3 106 107 454
3 505 348 349
3 348 505 152
3 454 453 106
3 247 249 495
3 251 252 497
3 251 497 496
3 383 243 384
3 255 256 500
3 459 458 1
3 512 510 352
3 246 384 243
3 802 804 457
3 352 353 512
3 1 0 459
3 533 532 355
3 138 137 581
3 8 461 460
3 139 586 584
3 462 461 9
3 272 273 539
3 139 138 586
3 539 537 272
3 180 186 396
3 13 14 466
3 593 592 149
3 398 190 399
3 288 290 550
3 550 549 288
3 12 13 465
3 399 189 400
3 194 400 189
3 290 291 551
3 230 515 552
3 516 515 234
3 230 234 515
3 407 221 219
3 154 153 597
3 242 521 520
3 495 521 247
3 597 602 154
3 231 332 337
3 231 337 236
3 242 247 521
3 410 229 411
3 498 497 252
3 409 224 410
3 500 498 255
3 252 255 498
3 790 792 424
3 233 412 228
3 412 233 413
3 232 413 233
3 236 337 338
3 258 259 502
3 284 530 529
3 258 502 501
3 427 426 793
3 527 530 282
3 506 505 349
3 383 241 243
3 349 351 506
3 510 506 351
3 8 9 461
3 229 410 224
3 351 352 510
3 628 627 163
3 411 228 412
3 9 10 462
3 339 486 485
3 354 355 532
3 623 628 161
3 413 232 414
3 12 465 464
3 532 531 354
3 356 536 533
3 152 346 348
3 632 166 164
3 632 631 166
3 245 385 246
3 540 539 273
3 433 466 14
3 386 245 248
3 250 387 248
3 273 274 540
3 388 250 254
3 466 465 13
3 253 389 254
3 170 391 171
3 435 434 16
3 175 392 170
3 187 184 303
3 393 174 394
3 180 395 181
3 394 181 395
3 437 436 799
3 17 799 436
3 801 800 438
3 191 307 308
3 180 396 395
3 438 437 801
3 303 307 187
3 402 210 209
3 800 783 439
3 211 403 209
3 156 154 602
3 217 404 211
3 783 782 440
3 199 313 316
3 785 784 442
3 602 601 156
3 202 200 317
3 224 409 225
3 441 785 442
3 228 411 229
3 160 157 604
3 317 318 202
3 157 601 604
3 239 414 232
3 458 804 1
3 318 319 208
3 511 509 297
3 231 227 332
3 177 148 300
3 364 300 148
3 369 493 503
3 503 259 369
3 784 785 373
3 785 782 373
3 786 784 373
3 791 788 373
3 788 789 373
3 787 373 789
3 183 182 646
3 310 560 559
3 792 790 373
3 790 791 373
3 563 562 311
3 792 373 794
3 793 373 795
3 796 797 373
3 797 795 373
3 798 796 373
3 799 373 801
3 783 800 373
3 782 783 373
3 569 568 314
3 801 373 800
3 321 315 570
3 107 120 803
3 804 802 120
3 1 804 120
3 570 574 321
3 8 0 120
3 0 1 120
3 9 8 120
3 12 11 120
3 11 10 120
3 10 9 120
3 322 574 476
3 195 192 615
3 373 13 12
3 373 15 14
3 373 14 13
3 17 16 373
3 16 15 373
3 17 373 799
3 79 80 120
3 86 84 120
3 93 92 120
3 92 87 120
3 97 93 120
3 331 479 482
3 101 100 120
3 99 120 100
3 105 104 120
3 103 120 104
3 102 120 103
3 484 483 335
3 106 120 107
3 106 105 120
3 802 803 120
3 793 794 373
3 787 786 373
3 12 120 373
3 99 98 120
3 98 97 120
3 102 101 120
3 87 86 120
3 84 79 120
3 121 120 80
3 121 80 112
3 213 661 214
3 116 798 373
3 373 372 116
3 117 116 372
3 483 486 336
3 160 604 623
3 788 791 422
3 164 163 627
3 425 424 792
3 163 161 628
3 425 792 794
3 164 627 632
3 430 429 796
3 168 167 635
3 798 431 796
3 492 491 263
3 635 637 168
3 10 11 463
3 173 172 639
3 172 169 640
3 178 173 644
3 178 644 643
3 647 646 182
3 182 179 647
3 192 188 611
3 183 646 650
3 295 294 508
3 422 421 788
3 468 467 79
3 469 468 84
3 84 86 469
3 470 469 86
3 470 86 87
3 473 472 93
3 473 93 97
3 446 445 98
3 446 98 99
3 449 448 101
3 449 101 102
3 206 657 656
3 206 656 207
3 451 450 103
3 206 205 657
3 518 524 278
3 661 213 656
3 455 454 107
3 456 455 803
3 107 803 455
3 457 456 802
3 611 615 192
3 195 615 614
3 618 617 197
3 198 197 617
3 460 0 8
3 197 196 618
3 463 462 10
3 201 198 620
3 538 292 289
3 621 204 203
3 443 442 784
3 205 204 654
3 621 654 204
3 519 518 277
3 654 657 205
3 207 656 213
3 281 280 522
3 167 166 631
3 631 635 167
3 341 339 485
3 637 169 168
3 460 459 0
3 488 487 342
3 343 342 487
3 640 639 172
3 637 640 169
3 485 488 341
3 342 341 488
3 11 12 464
3 464 463 11
3 487 489 343
3 344 343 489
3 489 490 344
3 262 344 490
3 264 263 491
3 434 15 16
3 263 262 492
3 490 492 262
3 491 494 264
3 494 499 267
3 268 267 499
3 499 542 268
3 269 268 542
3 443 784 786
3 507 511 296
3 458 457 804
3 271 270 544
3 542 545 269
3 293 271 548
3 544 548 271
3 548 504 293
3 504 508 294
3 508 507 295
3 296 295 507
3 301 514 513
3 509 514 298
3 277 276 519
3 278 277 518
3 522 527 281
3 529 534 285
3 287 285 534
3 534 535 287
3 304 554 305
3 306 556 304
3 305 553 309
3 560 309 553
3 309 560 310
3 312 311 562
3 311 310 563
3 314 312 569
3 315 314 568
3 568 570 315
3 322 321 574
