ply
format ascii 1.0
comment Created by Blender 2.82 (sub 7) - www.blender.org, source file: ''
element vertex 445
property float x
property float y
property float z
property float nx
property float ny
property float nz
element face 807
property list uchar uint vertex_indices
end_header
2.000000 -0.000000 0.000000 0.000000 -1.000000 0.000000
-10.000000 0.000002 7.000000 0.000000 -1.000000 0.000000
-10.000000 0.000002 -7.000000 0.000000 -1.000000 0.000000
-155.999985 67.000023 -16.000000 -0.807367 0.173345 -0.563952
-160.999985 47.000027 -23.000000 -0.826472 -0.004547 -0.562914
-166.999985 49.000027 -14.000000 -0.816157 0.122135 -0.564745
-174.999985 58.000027 0.000000 -0.985870 0.167364 0.000000
-170.999985 83.000031 0.000000 -0.940123 0.340739 0.000000
-149.999985 84.000023 -28.000000 -0.699545 0.264351 -0.663869
-133.999985 81.000023 -44.000000 -0.703909 0.226875 -0.673055
-151.999985 60.000023 -39.000000 -0.758751 0.099521 -0.643696
-157.000000 33.000027 -22.000000 -0.621632 -0.393078 -0.677511
-173.000000 26.000029 0.000000 -0.881710 -0.471755 0.000000
-166.999985 49.000027 14.000000 -0.816157 0.122135 0.564745
-155.999985 67.000023 16.000000 -0.807367 0.173345 0.563952
-149.999985 84.000023 28.000000 -0.699545 0.264351 0.663869
-147.999985 95.000023 17.000000 -0.650960 0.531724 0.541734
-155.999985 98.000023 0.000000 -0.833064 0.553148 0.000000
-147.999985 95.000023 -17.000000 -0.650960 0.531724 -0.541734
-135.999985 106.000023 -20.000000 -0.624226 0.619160 -0.476363
-131.999985 105.000023 -54.000000 -0.687704 0.300119 -0.661031
-91.999985 88.000015 -65.000000 -0.267006 0.244331 -0.932188
-128.999985 68.000023 -54.000000 -0.476150 0.093020 -0.874416
-109.999992 50.000019 -59.000000 -0.444288 -0.170385 -0.879513
-149.000000 22.000025 -21.000000 -0.575579 -0.534013 -0.619282
-165.000000 19.000027 0.000000 -0.606525 -0.795038 0.000000
-157.000000 33.000027 22.000000 -0.621632 -0.393078 0.677511
-160.999985 47.000027 23.000000 -0.826472 -0.004547 0.562914
-151.999985 60.000023 39.000000 -0.758751 0.099521 0.643696
-133.999985 81.000023 44.000000 -0.703909 0.226875 0.673055
-135.999985 106.000023 20.000000 -0.624226 0.619160 0.476363
-146.999985 122.000023 0.000000 -0.609516 0.792749 0.000000
-110.999977 120.000015 -15.000000 -0.448195 0.848903 -0.280007
-109.999977 125.000015 -44.000000 -0.312510 0.878872 -0.360363
-79.999977 125.000015 -49.000000 -0.218879 0.741844 -0.633778
-63.999981 113.000008 -58.000000 -0.158574 0.445326 -0.881191
-67.999985 71.000008 -78.000000 -0.268258 0.133518 -0.954039
35.000011 74.999992 95.000000 -0.010590 0.248390 0.968596
2.000013 77.000000 85.000000 -0.293313 0.436598 0.850459
-18.999992 48.000004 88.000000 -0.300546 0.078921 0.950468
27.000008 42.999996 98.000000 -0.058931 -0.044740 0.997253
73.000015 74.999985 87.000000 0.241066 0.284402 0.927885
40.000015 100.999992 84.000000 -0.328593 0.082430 0.940855
1.000018 108.000000 59.000000 -0.184454 0.385540 0.904019
-15.999986 86.000000 72.000000 0.083560 0.338267 0.937315
-37.999989 63.000008 76.000000 -0.068270 -0.061830 0.995727
-80.999992 39.000011 59.000000 -0.207862 -0.423933 0.881497
-31.999998 14.000005 81.000000 -0.262734 -0.484359 0.834468
-21.999998 13.000004 82.000000 -0.155431 -0.558184 0.814997
29.000002 13.999995 92.000000 -0.037446 -0.525803 0.849757
73.000008 41.999989 93.000000 0.211524 -0.005219 0.977325
91.000008 40.999985 87.000000 0.291269 -0.022706 0.956359
109.000008 39.999981 82.000000 0.479659 -0.024628 0.877071
107.000015 74.999985 74.000000 0.471999 0.249336 0.845576
103.000015 103.999985 67.000000 0.742149 -0.132725 0.656941
70.000015 91.999992 78.000000 0.212470 -0.144505 0.966399
51.000019 109.999992 97.000000 -0.688437 -0.574145 0.443129
47.000023 128.999985 93.000000 -0.860775 0.167913 0.480422
34.000023 133.000000 80.000000 -0.558489 0.176519 0.810480
20.000023 137.000000 72.000000 -0.543809 0.478408 0.689474
-4.999979 129.000000 52.000000 -0.589862 0.377911 0.713584
-15.999979 129.000000 46.000000 -0.269021 0.793451 0.545885
-12.999982 113.000000 65.000000 0.230842 0.578814 0.782067
-26.999985 89.000008 78.000000 0.194006 0.176153 0.965026
-50.999989 65.000008 82.000000 0.047578 -0.268410 0.962096
-98.999992 40.000015 63.000000 -0.221992 -0.540574 0.811457
-140.000000 15.000023 24.000000 -0.496902 -0.648183 0.576952
-80.000000 16.000013 60.000000 -0.428999 -0.383251 0.817957
-64.000000 1.000010 50.000000 -0.286996 -0.757591 0.586200
-36.000000 1.000006 58.000000 -0.152654 -0.845424 0.511765
-9.000000 1.000001 67.000000 -0.126957 -0.823359 0.553117
29.000000 0.999995 74.000000 -0.016388 -0.810541 0.585406
67.000000 0.999989 69.000000 0.110477 -0.835444 0.538347
71.000000 13.999989 88.000000 0.160466 -0.534257 0.829920
89.000000 12.999986 82.000000 0.246284 -0.571642 0.782647
108.000000 12.999983 76.000000 0.441237 -0.569384 0.693594
145.000000 39.999977 47.000000 0.794702 -0.177313 0.580462
144.000015 70.999977 48.000000 0.725089 0.206336 0.656972
144.000015 77.999977 44.000000 0.731681 0.298685 0.612690
133.000015 128.999985 36.000000 0.781457 0.111179 0.613910
111.000023 124.999985 64.000000 0.913266 -0.054689 0.403638
108.000023 128.999985 82.000000 0.989013 0.038728 0.142613
101.000015 106.999985 89.000000 0.721946 -0.677664 0.139683
75.000015 100.999985 93.000000 0.005799 -0.960295 0.278878
54.000019 108.999992 114.000000 -0.734825 -0.655141 0.175390
49.000023 129.999985 111.000000 -0.969634 0.173681 0.172094
59.000023 145.999985 109.000000 -0.641499 0.751396 0.154271
55.000023 148.999985 89.000000 -0.550951 0.631550 0.545457
53.000027 156.999985 82.000000 -0.371624 0.764183 0.527116
44.000023 152.000000 77.000000 -0.616901 0.650746 0.442610
26.000023 142.000000 56.000000 -0.536912 0.498642 0.680441
-4.999976 147.000000 35.000000 -0.689383 0.593768 0.414869
-16.999977 136.000000 26.000000 -0.499680 0.788507 0.358501
-31.999979 132.000000 26.000000 0.162969 0.971221 0.173620
-26.999979 126.000008 42.000000 0.165075 0.869686 0.465133
-28.999981 115.000008 61.000000 0.010407 0.652974 0.757286
-43.999985 94.000008 73.000000 -0.151921 0.449599 0.880184
-67.999985 71.000008 78.000000 -0.268258 0.133518 0.954039
-109.999992 50.000019 59.000000 -0.444288 -0.170385 0.879513
-149.000000 22.000025 21.000000 -0.575579 -0.534013 0.619282
-153.000000 13.000025 0.000000 -0.479751 -0.877377 0.000000
-128.000000 1.000021 0.000000 -0.421186 -0.906949 0.000000
-109.000000 1.000018 24.000000 -0.354289 -0.784478 0.508927
52.000027 158.999985 74.000000 -0.304758 0.329295 0.893674
50.000027 164.999985 77.000000 -0.239113 0.037172 0.970275
23.000025 153.000000 60.000000 -0.597644 0.011383 0.801660
29.000029 171.000000 52.000000 -0.662801 0.495895 0.560991
13.000027 165.000000 32.000000 -0.739036 0.581652 0.339793
1.000027 164.000000 0.000000 -0.822169 0.569201 0.000000
-5.999975 156.000000 0.000000 -0.676351 0.736564 0.000000
-15.999976 149.000000 0.000000 -0.573656 0.819056 0.000000
-28.999977 142.000000 0.000000 -0.249702 0.968291 0.000000
-56.999977 141.000015 0.000000 -0.008881 0.999939 0.000000
-45.999977 145.000000 46.000000 0.117222 0.904538 0.409894
-63.999981 113.000008 58.000000 -0.158574 0.445326 0.881191
-91.999985 88.000015 65.000000 -0.267006 0.244331 0.932188
-128.999985 68.000023 54.000000 -0.476150 0.093020 0.874416
-140.000000 15.000023 -24.000000 -0.500565 -0.647877 -0.574145
-109.000000 1.000018 -24.000000 -0.354289 -0.784478 -0.508927
-64.000000 1.000010 -50.000000 -0.279641 -0.751335 -0.597705
-110.000000 15.000018 -44.000000 -0.492599 -0.399243 -0.773247
-80.000000 16.000013 -60.000000 -0.392712 -0.373547 -0.840358
-16.999998 13.000003 -85.000000 -0.227546 -0.531602 -0.815851
-9.000000 1.000001 -67.000000 -0.116062 -0.845058 -0.521897
6.000002 12.999999 -88.000000 -0.156926 -0.586169 -0.794824
20.000002 13.999997 -92.000000 -0.065706 -0.527421 -0.847041
29.000000 0.999995 -74.000000 0.008942 -0.808496 -0.588397
67.000000 0.999989 -69.000000 0.123539 -0.826106 -0.549791
71.000000 13.999989 -88.000000 0.160772 -0.540025 -0.826136
89.000000 0.999986 -61.000000 0.213050 -0.881619 -0.421094
108.000000 12.999983 -76.000000 0.434309 -0.569842 -0.697592
138.000000 8.999977 -39.000000 0.601642 -0.713736 -0.358592
101.000000 0.999984 -46.000000 0.242195 -0.950652 -0.193762
113.000000 0.999982 -31.000000 0.260903 -0.955626 -0.136631
142.000000 8.999977 -20.000000 0.549150 -0.822077 -0.150212
149.000000 8.999976 0.000000 0.620655 -0.784051 0.004120
120.000000 0.999980 0.000000 0.265908 -0.963988 0.000000
113.000000 0.999982 31.000000 0.273232 -0.950194 0.149693
135.000000 8.999978 40.000000 0.595172 -0.716025 0.364727
89.000000 0.999986 61.000000 0.223243 -0.886013 0.406323
167.000000 33.999973 -1.000000 0.931822 -0.362804 0.004456
144.000000 14.999976 -33.000000 0.819361 -0.461592 -0.339915
163.000000 32.999973 -9.000000 0.865474 -0.282540 -0.413648
174.000015 65.999969 0.000000 0.997436 0.071169 0.002319
167.000015 86.999969 0.000000 0.934416 0.356120 0.000000
151.000015 112.999977 0.000000 0.930204 0.367016 0.000000
138.000031 156.999985 31.000000 0.865169 0.114017 0.488296
110.000023 154.999985 57.000000 0.397931 -0.323160 0.858577
101.000023 149.999985 54.000000 0.710807 0.163610 0.684072
110.000023 141.999985 56.000000 0.787835 0.553850 0.269295
100.000023 148.999985 80.000000 0.687063 0.704642 0.177160
100.000023 145.999985 106.000000 0.697897 0.686453 0.204169
106.000023 128.999985 107.000000 0.981109 0.046205 0.187689
99.000015 106.999985 109.000000 0.700278 -0.706565 0.101688
77.000015 100.999985 113.000000 -0.038697 -0.998871 0.026490
58.000019 109.999992 128.000000 -0.710624 -0.604633 0.359722
54.000023 129.999985 128.000000 -0.947478 0.079653 0.309702
61.000023 144.999985 128.000000 -0.663778 0.737632 0.123508
77.000023 152.999985 109.000000 0.000610 0.989715 0.142918
78.000023 156.999985 87.000000 0.114872 0.948149 0.296243
78.000023 160.999985 76.000000 0.167821 0.970092 0.175329
66.000015 109.999992 188.000000 -0.535630 -0.341288 0.772393
78.000015 105.999985 188.000000 0.492965 -0.586718 0.642384
80.000023 126.999985 185.000000 0.679586 0.227943 0.697256
62.000023 128.999985 183.000000 -0.748100 0.252937 0.613453
64.000015 105.999992 176.000000 -0.606220 -0.677206 -0.416944
79.000015 105.999985 176.000000 0.617176 -0.644520 -0.451277
79.000023 119.999985 170.000000 0.638874 -0.360698 -0.679464
80.000023 140.999985 177.000000 0.631764 0.587664 0.505448
63.000023 141.999985 175.000000 -0.662648 0.630573 0.404004
64.000023 128.999985 166.000000 -0.831263 -0.466994 -0.301462
64.000023 119.999992 173.000000 -0.730735 -0.289010 -0.618427
79.000023 128.999985 165.000000 0.780633 -0.614215 -0.115360
81.000023 126.999985 151.000000 -0.332865 -0.614185 0.715506
79.000023 147.999985 154.000000 0.169683 0.970611 0.170476
65.000023 146.999985 154.000000 -0.654164 0.745689 0.126286
67.000023 125.999992 154.000000 -0.544115 -0.756371 0.363018
92.000023 141.999985 151.000000 0.712333 0.698172 0.071200
82.000023 140.999985 183.000000 -0.586352 0.583941 0.561418
95.000023 141.999985 179.000000 0.585253 0.736412 0.339305
98.000023 124.999985 153.000000 0.947111 0.030427 0.319407
101.000023 127.999985 125.000000 0.979797 0.095004 0.175878
94.000023 143.999985 122.000000 0.673574 0.714988 0.187231
77.000023 151.999985 125.000000 0.019654 0.995148 0.096316
95.000015 102.999985 175.000000 0.399304 -0.693167 -0.599994
96.000015 104.999985 190.000000 0.512925 -0.531938 0.673727
84.000015 105.999985 188.000000 -0.521531 -0.538896 0.661489
81.000015 105.999985 180.000000 -0.786462 -0.535112 -0.308420
85.000023 123.999985 176.000000 -0.730430 -0.197363 -0.653829
96.000023 119.999985 173.000000 0.572741 -0.227607 -0.787469
99.000023 126.999985 185.000000 0.825129 0.197180 0.529405
82.000023 126.999985 186.000000 -0.749901 0.136021 0.647389
84.000023 131.999985 172.000000 -0.868770 -0.469375 -0.157659
97.000023 128.999985 168.000000 0.842219 -0.533372 -0.078494
79.000015 100.999985 128.000000 -0.043428 -0.996643 0.069369
81.000015 104.999985 151.000000 -0.627796 -0.740440 0.239937
86.000015 109.999985 171.000000 -0.321299 0.036836 0.946257
95.000015 110.999985 167.000000 0.700888 0.066164 0.710166
96.000015 106.999985 149.000000 0.784539 -0.616474 -0.066195
96.000015 106.999985 126.000000 0.729606 -0.680746 0.064821
96.000015 101.999985 159.000000 0.750420 -0.659749 0.039674
85.000015 96.999985 162.000000 -0.320780 -0.919431 0.227424
78.000023 160.999985 68.000000 0.366771 0.248421 0.896512
79.000031 166.999985 74.000000 0.209082 -0.133518 0.968719
52.000031 176.999985 71.000000 -0.297586 0.529038 0.794671
41.000031 196.000000 44.000000 -0.550279 0.608875 0.571306
62.000031 196.999985 57.000000 -0.159673 0.672353 0.722770
72.000038 216.999985 37.000000 -0.050752 0.840083 0.540025
53.000034 216.999985 29.000000 -0.303140 0.822443 0.481277
40.000034 218.000000 15.000000 -0.507797 0.816126 0.275735
23.000031 193.000000 23.000000 -0.751793 0.524979 0.398938
89.000031 195.999985 55.000000 0.213263 0.577715 0.787835
100.000038 211.999985 35.000000 0.263344 0.806543 0.529221
87.000038 223.999985 18.000000 0.112369 0.956053 0.270699
67.000038 224.999985 10.000000 -0.107822 0.985961 0.127415
36.000034 218.000000 0.000000 -0.567278 0.823511 -0.001068
13.000031 192.000000 0.000000 -0.850734 0.525559 0.000000
131.000031 209.999985 14.000000 0.524094 0.762352 0.379589
110.000038 220.999985 8.000000 0.312906 0.946959 0.073092
89.000038 224.999985 0.000000 0.096652 0.995300 -0.002686
64.000038 223.999985 -10.000000 -0.131870 0.982513 -0.131260
40.000034 218.000000 -15.000000 -0.503922 0.818995 -0.274361
23.000031 193.000000 -23.000000 -0.751793 0.524979 -0.398938
13.000027 165.000000 -32.000000 -0.739036 0.581652 -0.339793
103.000023 150.999985 61.000000 0.613849 0.788751 -0.032502
119.000031 170.999985 52.000000 0.624683 0.102664 0.774071
84.000031 177.999985 68.000000 0.267800 0.439528 0.857356
123.000031 191.999985 44.000000 0.513260 -0.189489 0.837031
129.000031 196.999985 44.000000 0.561266 0.346507 0.751579
144.000031 190.999969 20.000000 0.802637 0.015168 0.596240
146.000031 201.999969 0.000000 0.790246 0.608570 0.071413
125.000038 213.999985 0.000000 0.422987 0.902341 0.082492
107.000038 221.999985 -8.000000 0.248421 0.967009 0.055971
85.000038 223.999985 -19.000000 0.028901 0.974700 -0.221534
53.000034 216.999985 -29.000000 -0.304178 0.824549 -0.477004
41.000031 196.000000 -44.000000 -0.550279 0.608875 -0.571306
29.000029 171.000000 -52.000000 -0.662801 0.495895 -0.560991
-4.999976 147.000000 -35.000000 -0.689383 0.593768 -0.414869
-16.999977 136.000000 -26.000000 -0.499680 0.788507 -0.358501
-31.999979 132.000000 -26.000000 0.162969 0.971221 -0.173620
-45.999977 145.000000 -46.000000 0.117222 0.904538 -0.409894
-77.999977 135.000015 -17.000000 -0.084750 0.906125 -0.414411
-95.999977 146.000015 0.000000 -0.321421 0.946928 0.000000
-77.999977 135.000015 17.000000 -0.084750 0.906125 0.414411
-79.999977 125.000015 49.000000 -0.218879 0.741844 0.633778
-131.999985 105.000023 54.000000 -0.687704 0.300119 0.661031
147.000031 147.999969 0.000000 0.999329 0.026307 0.024995
136.000031 171.999985 25.000000 0.875149 0.288095 0.388653
130.000031 187.999985 33.000000 0.789850 -0.401715 0.463332
134.000031 196.999985 41.000000 0.685781 0.551592 0.474776
136.000031 183.999985 19.000000 0.552385 -0.591052 0.587786
151.000031 184.999969 8.000000 0.849757 -0.083621 0.520463
155.000031 179.999969 0.000000 0.979583 -0.199530 -0.024262
152.000031 184.999969 -5.000000 0.897153 0.016602 -0.441359
147.000031 191.999969 -16.000000 0.826716 -0.001465 -0.562578
133.000031 212.999985 -17.000000 0.594653 0.742668 -0.307871
115.000038 216.999985 -30.000000 0.318217 0.833613 -0.451430
93.000038 215.999985 -36.000000 0.100009 0.800897 -0.590381
72.000038 216.999985 -37.000000 -0.087954 0.833155 -0.545946
62.000031 196.999985 -57.000000 -0.159673 0.672353 -0.722770
52.000031 176.999985 -71.000000 -0.297586 0.529038 -0.794671
50.000027 164.999985 -77.000000 -0.239113 0.037172 -0.970275
23.000025 153.000000 -60.000000 -0.597644 0.011383 -0.801660
26.000023 142.000000 -56.000000 -0.536912 0.498642 -0.680441
20.000023 137.000000 -72.000000 -0.543809 0.478408 -0.689474
-4.999979 129.000000 -52.000000 -0.589862 0.377911 -0.713584
-15.999979 129.000000 -46.000000 -0.269021 0.793451 -0.545885
-26.999979 126.000008 -42.000000 0.165075 0.869686 -0.465133
-28.999981 115.000008 -61.000000 0.010407 0.652974 -0.757286
151.000031 171.999969 0.000000 0.983337 -0.163732 0.078890
143.000031 178.999969 10.000000 0.713584 -0.133183 0.687765
139.000031 162.999985 -32.000000 0.850246 0.063509 -0.522477
148.000031 177.999969 -5.000000 0.743584 -0.127140 -0.656392
132.000031 181.999985 21.000000 0.622730 -0.543718 0.562609
134.000031 178.999985 16.000000 0.701315 0.077181 0.708640
134.000031 175.999985 24.000000 0.859340 0.511063 0.017212
127.000031 183.999985 29.000000 0.971923 0.004517 -0.235206
35.000011 74.999992 -95.000000 -0.015076 0.246864 -0.968902
27.000008 42.999996 -98.000000 -0.034303 -0.033998 -0.998810
2.000007 43.000000 -93.000000 -0.122227 0.029603 -0.992035
2.000013 77.000000 -85.000000 -0.274300 0.434797 -0.857723
40.000015 100.999992 -84.000000 -0.328593 0.082430 -0.940855
73.000015 74.999985 -87.000000 0.240303 0.285867 -0.927641
73.000008 41.999989 -93.000000 0.199622 -0.010102 -0.979797
-15.999991 50.000004 -92.000000 -0.260231 0.125095 -0.957396
-37.999989 63.000008 -76.000000 -0.091617 -0.011811 -0.995697
-15.999986 86.000000 -72.000000 0.083560 0.338267 -0.937315
1.000018 108.000000 -59.000000 -0.184454 0.385540 -0.904019
34.000023 133.000000 -80.000000 -0.558489 0.176519 -0.810480
47.000023 128.999985 -93.000000 -0.860775 0.167913 -0.480422
51.000019 109.999992 -97.000000 -0.688437 -0.574145 -0.443129
70.000015 91.999992 -78.000000 0.212470 -0.144505 -0.966399
103.000015 103.999985 -67.000000 0.742149 -0.132725 -0.656941
107.000015 74.999985 -74.000000 0.471999 0.249336 -0.845576
109.000008 39.999981 -82.000000 0.488357 -0.021149 -0.872372
-80.999992 39.000011 -59.000000 -0.198645 -0.421644 -0.884701
-98.999992 40.000015 -63.000000 -0.221992 -0.540574 -0.811457
-50.999989 65.000008 -82.000000 0.047578 -0.268410 -0.962096
44.000023 152.000000 -77.000000 -0.616901 0.650746 -0.442610
52.000027 158.999985 -74.000000 -0.304758 0.329295 -0.893674
53.000027 156.999985 -82.000000 -0.371624 0.764183 -0.527116
-12.999982 113.000000 -65.000000 0.230842 0.578814 -0.782067
-26.999985 89.000008 -78.000000 0.194006 0.176153 -0.965026
-43.999985 94.000008 -73.000000 -0.151921 0.449599 -0.880184
145.000000 39.999977 -47.000000 0.789727 -0.149480 -0.594928
66.000015 109.999992 -188.000000 -0.535630 -0.341288 -0.772393
62.000023 128.999985 -183.000000 -0.748100 0.252937 -0.613453
80.000023 126.999985 -185.000000 0.679586 0.227943 -0.697256
78.000015 105.999985 -188.000000 0.492965 -0.586718 -0.642384
64.000015 105.999992 -176.000000 -0.606220 -0.677206 0.416944
64.000023 119.999992 -173.000000 -0.730735 -0.289010 0.618427
64.000023 128.999985 -166.000000 -0.831263 -0.466994 0.301462
63.000023 141.999985 -175.000000 -0.662648 0.630573 -0.404004
80.000023 140.999985 -177.000000 0.631764 0.587664 -0.505448
79.000023 119.999985 -170.000000 0.638874 -0.360698 0.679464
79.000015 105.999985 -176.000000 0.617145 -0.644520 0.451277
79.000023 128.999985 -165.000000 0.780633 -0.614215 0.115360
67.000023 125.999992 -154.000000 -0.544115 -0.756371 -0.363018
65.000023 146.999985 -154.000000 -0.654164 0.745689 -0.126286
79.000023 147.999985 -154.000000 0.169683 0.970611 -0.170476
81.000023 126.999985 -151.000000 -0.332865 -0.614185 -0.715506
92.000023 141.999985 -151.000000 0.712333 0.698172 -0.071200
95.000023 141.999985 -179.000000 0.585253 0.736412 -0.339305
82.000023 140.999985 -183.000000 -0.586352 0.583941 -0.561418
94.000023 143.999985 -122.000000 0.673574 0.714988 -0.187231
101.000023 127.999985 -125.000000 0.979797 0.095004 -0.175878
98.000023 124.999985 -153.000000 0.947111 0.030427 -0.319407
97.000023 128.999985 -168.000000 0.842219 -0.533372 0.078494
96.000023 119.999985 -173.000000 0.572741 -0.227607 0.787469
99.000023 126.999985 -185.000000 0.825129 0.197180 -0.529405
82.000023 126.999985 -186.000000 -0.749901 0.136021 -0.647389
84.000023 131.999985 -172.000000 -0.868770 -0.469375 0.157659
86.000015 109.999985 -171.000000 -0.321299 0.036836 -0.946257
81.000015 104.999985 -151.000000 -0.627796 -0.740440 -0.239937
58.000019 109.999992 -128.000000 -0.710624 -0.604633 -0.359722
95.000015 102.999985 -175.000000 0.399304 -0.693167 0.599994
81.000015 105.999985 -180.000000 -0.786462 -0.535112 0.308420
84.000015 105.999985 -188.000000 -0.521531 -0.538896 -0.661489
96.000015 104.999985 -190.000000 0.512925 -0.531938 -0.673727
85.000023 123.999985 -176.000000 -0.730430 -0.197363 0.653829
77.000015 100.999985 -113.000000 -0.038697 -0.998871 -0.026490
54.000019 108.999992 -114.000000 -0.734825 -0.655141 -0.175390
79.000015 100.999985 -128.000000 -0.043428 -0.996643 -0.069369
96.000015 106.999985 -126.000000 0.729606 -0.680746 -0.064821
99.000015 106.999985 -109.000000 0.700278 -0.706565 -0.101688
75.000015 100.999985 -93.000000 0.005799 -0.960295 -0.278878
49.000023 129.999985 -111.000000 -0.969634 0.173681 -0.172094
54.000023 129.999985 -128.000000 -0.947478 0.079653 -0.309702
61.000023 144.999985 -128.000000 -0.663778 0.737632 -0.123508
77.000023 151.999985 -125.000000 0.019654 0.995148 -0.096316
77.000023 152.999985 -109.000000 0.000610 0.989715 -0.142918
100.000023 145.999985 -106.000000 0.697897 0.686453 -0.204169
106.000023 128.999985 -107.000000 0.981109 0.046205 -0.187689
96.000015 106.999985 -149.000000 0.784539 -0.616474 0.066195
95.000015 110.999985 -167.000000 0.700888 0.066164 -0.710166
85.000015 96.999985 -162.000000 -0.320780 -0.919431 -0.227424
96.000015 101.999985 -159.000000 0.750420 -0.659749 -0.039674
101.000015 106.999985 -89.000000 0.721946 -0.677664 -0.139683
108.000023 128.999985 -82.000000 0.989013 0.038728 -0.142613
111.000023 124.999985 -64.000000 0.913266 -0.054689 -0.403638
133.000015 128.999985 -36.000000 0.781457 0.111179 -0.613910
144.000015 77.999977 -44.000000 0.731681 0.298685 -0.612690
144.000015 70.999977 -48.000000 0.725089 0.206336 -0.656972
59.000023 145.999985 -109.000000 -0.641499 0.751396 -0.154271
55.000023 148.999985 -89.000000 -0.550951 0.631550 -0.545457
78.000023 156.999985 -87.000000 0.114872 0.948149 -0.296243
100.000023 148.999985 -80.000000 0.687063 0.704642 -0.177160
78.000023 160.999985 -76.000000 0.167821 0.970092 -0.175329
78.000023 160.999985 -68.000000 0.366771 0.248421 -0.896512
103.000023 150.999985 -61.000000 0.613849 0.788751 0.032502
101.000023 149.999985 -54.000000 0.710807 0.163610 -0.684072
110.000023 154.999985 -57.000000 0.397931 -0.323160 -0.858577
110.000023 141.999985 -56.000000 0.787835 0.553850 -0.269295
79.000031 166.999985 -74.000000 0.209082 -0.133518 -0.968719
119.000031 170.999985 -52.000000 0.583819 0.087802 -0.807092
138.000031 156.999985 -31.000000 0.832453 -0.117191 -0.541551
123.000031 191.999985 -44.000000 0.595599 -0.198035 -0.778466
135.000031 169.999985 -30.000000 0.844417 0.507889 -0.170110
137.000031 176.999985 -14.000000 0.694388 0.272683 -0.665914
131.000031 182.999985 -22.000000 0.853328 -0.014985 -0.521134
137.000031 187.999985 -19.000000 0.553148 -0.577166 -0.600696
84.000031 177.999985 -68.000000 0.267800 0.439528 -0.857356
89.000031 195.999985 -55.000000 0.202338 0.557878 -0.804834
129.000031 196.999985 -44.000000 0.655202 0.072390 -0.751946
122.000031 188.999985 -39.000000 0.997559 -0.060244 -0.034547
-109.999977 125.000015 44.000000 -0.312510 0.878872 0.360363
-93.999977 127.000015 22.000000 -0.315836 0.896359 0.311045
-110.999977 120.000015 15.000000 -0.448195 0.848903 0.280007
-119.999977 124.000023 0.000000 -0.311594 0.950194 0.000000
-93.999977 127.000015 -22.000000 -0.315836 0.896359 -0.311045
19.000000 -0.000003 -156.000000 0.000000 1.000000 0.000000
-40.000000 0.000007 -144.000000 0.000000 1.000000 0.000000
18.000000 -0.000003 3.000000 0.000000 0.999969 0.000000
80.000000 -0.000013 -144.000000 0.000000 1.000000 0.000000
133.000000 -0.000022 -109.000000 0.000000 1.000000 0.000000
167.000000 -0.000027 -57.000000 0.000000 0.999969 0.000000
180.000000 -0.000029 3.000000 0.000000 1.000000 0.000000
167.000000 -0.000027 63.000000 0.000000 0.999969 0.000000
133.000000 -0.000022 115.000000 0.000000 1.000000 0.000000
80.000000 -0.000013 150.000000 0.000000 1.000000 0.000000
19.000000 -0.000003 162.000000 0.000000 1.000000 0.000000
-40.000000 0.000007 150.000000 0.000000 1.000000 0.000000
-109.000000 0.000018 129.000000 0.000000 1.000000 0.000000
-160.000000 0.000026 92.000000 0.000000 1.000000 0.000000
-195.000000 0.000032 45.000000 0.000000 1.000000 0.000000
-203.000000 0.000033 3.000000 0.000000 1.000000 0.000000
-195.000000 0.000032 -39.000000 0.000000 1.000000 0.000000
-160.000000 0.000026 -86.000000 0.000000 1.000000 0.000000
-109.000000 0.000018 -123.000000 0.000000 1.000000 0.000000
18.000000 -0.000003 -124.000000 0.000000 1.000000 0.000000
-28.000000 0.000005 -115.000000 0.000000 1.000000 0.000000
17.000000 -0.000003 3.000000 0.000000 1.000000 0.000000
67.000000 -0.000011 -115.000000 0.000000 1.000000 0.000000
109.000000 -0.000018 -86.000000 0.000000 1.000000 0.000000
136.000000 -0.000022 -44.000000 0.000000 1.000000 0.000000
147.000000 -0.000024 3.000000 0.000000 1.000000 0.000000
136.000000 -0.000022 50.000000 0.000000 1.000000 0.000000
109.000000 -0.000018 92.000000 0.000000 1.000000 0.000000
67.000000 -0.000011 121.000000 0.000000 1.000000 0.000000
18.000000 -0.000003 130.000000 0.000000 1.000000 0.000000
-28.000000 0.000005 121.000000 0.000000 1.000000 0.000000
-82.000000 0.000013 98.000000 0.000000 1.000000 0.000000
-128.000000 0.000021 68.000000 0.000000 1.000000 0.000000
-153.000000 0.000025 35.000000 0.000000 0.999969 0.000000
-166.000000 0.000027 3.000000 0.000000 1.000000 0.000000
-153.000000 0.000025 -29.000000 0.000000 0.999969 0.000000
-128.000000 0.000021 -62.000000 0.000000 1.000000 0.000000
-82.000000 0.000013 -92.000000 0.000000 1.000000 0.000000
17.000000 -0.000003 -97.000000 0.000000 1.000000 0.000000
-18.000000 0.000003 -89.000000 0.000000 1.000000 0.000000
15.000000 -0.000002 3.000000 0.000000 1.000000 0.000000
55.000000 -0.000009 -89.000000 0.000000 1.000000 0.000000
89.000000 -0.000014 -66.000000 0.000000 1.000000 0.000000
110.000000 -0.000018 -34.000000 0.000000 1.000000 0.000000
119.000000 -0.000019 3.000000 0.000000 1.000000 0.000000
110.000000 -0.000018 40.000000 0.000000 1.000000 0.000000
89.000000 -0.000014 72.000000 0.000000 1.000000 0.000000
55.000000 -0.000009 95.000000 0.000000 1.000000 0.000000
17.000000 -0.000003 103.000000 0.000000 1.000000 0.000000
-18.000000 0.000003 95.000000 0.000000 1.000000 0.000000
-62.000000 0.000010 72.000000 0.000000 1.000000 0.000000
-105.000000 0.000017 40.000000 0.000000 1.000000 0.000000
-127.000000 0.000021 3.000000 0.000000 1.000000 0.000000
-105.000000 0.000017 -34.000000 0.000000 1.000000 0.000000
-62.000000 0.000010 -66.000000 0.000000 1.000000 0.000000
3 0 1 2
3 3 4 5
3 3 5 6
3 3 6 7
3 3 7 8
3 3 8 9
3 3 9 10
3 3 10 4
3 4 10 11
3 4 11 12
3 4 12 5
3 5 12 6
3 6 12 13
3 6 13 14
3 6 14 7
3 7 14 15
3 7 15 16
3 7 16 17
3 7 17 18
3 7 18 8
3 8 18 9
3 9 18 19
3 9 19 20
3 9 20 21
3 9 21 22
3 9 22 10
3 10 22 23
3 10 23 11
3 11 23 24
3 11 24 25
3 11 25 12
3 12 25 26
3 12 26 27
3 12 27 13
3 13 27 14
3 14 27 28
3 14 28 29
3 14 29 15
3 15 29 16
3 16 29 30
3 16 30 31
3 16 31 17
3 17 31 18
3 18 31 19
3 19 31 32
3 19 32 33
3 19 33 20
3 20 33 34
3 20 34 21
3 21 34 35
3 21 35 36
3 21 36 23
3 21 23 22
3 37 38 39
3 37 39 40
3 37 40 41
3 37 41 42
3 37 42 38
3 38 42 43
3 38 43 44
3 38 44 45
3 38 45 39
3 39 45 46
3 39 46 47
3 39 47 48
3 39 48 49
3 39 49 40
3 40 49 50
3 40 50 41
3 41 50 51
3 41 51 52
3 41 52 53
3 41 53 54
3 41 54 55
3 41 55 42
3 42 55 56
3 42 56 57
3 42 57 58
3 42 58 43
3 43 58 59
3 43 59 60
3 43 60 61
3 43 61 62
3 43 62 44
3 44 62 63
3 44 63 45
3 45 63 64
3 45 64 46
3 46 64 65
3 46 65 66
3 46 66 67
3 46 67 47
3 47 67 68
3 47 68 48
3 48 68 69
3 48 69 70
3 48 70 49
3 49 70 71
3 49 71 72
3 49 72 73
3 49 73 50
3 50 73 74
3 50 74 51
3 51 74 75
3 51 75 52
3 52 75 76
3 52 76 77
3 52 77 53
3 53 77 78
3 53 78 54
3 54 78 79
3 54 79 80
3 54 80 81
3 54 81 82
3 54 82 55
3 55 82 83
3 55 83 56
3 56 83 84
3 56 84 85
3 56 85 57
3 57 85 86
3 57 86 87
3 57 87 58
3 58 87 88
3 58 88 89
3 58 89 59
3 59 89 90
3 59 90 91
3 59 91 60
3 60 91 92
3 60 92 61
3 61 92 93
3 61 93 94
3 61 94 62
3 62 94 95
3 62 95 63
3 63 95 96
3 63 96 64
3 64 96 97
3 64 97 65
3 65 97 98
3 65 98 99
3 65 99 66
3 66 99 100
3 66 100 101
3 66 101 102
3 66 102 68
3 66 68 67
3 89 103 90
3 90 103 104
3 90 104 105
3 90 105 91
3 91 105 106
3 91 106 107
3 91 107 108
3 91 108 109
3 91 109 110
3 91 110 92
3 92 110 111
3 92 111 93
3 93 111 112
3 93 112 113
3 93 113 94
3 94 113 95
3 95 113 114
3 95 114 96
3 96 114 97
3 97 114 115
3 97 115 98
3 98 115 116
3 98 116 28
3 98 28 26
3 98 26 99
3 99 26 25
3 99 25 100
3 100 25 24
3 100 24 117
3 100 117 101
3 101 117 118
3 118 117 119
3 119 117 120
3 119 120 121
3 119 121 122
3 119 122 123
3 123 122 124
3 123 124 125
3 123 125 126
3 126 125 127
3 127 125 128
3 127 128 129
3 129 128 130
3 129 130 131
3 129 131 132
3 132 131 133
3 133 131 134
3 133 134 135
3 133 135 136
3 136 135 137
3 137 135 138
3 137 138 139
3 139 138 75
3 139 75 74
3 139 74 72
3 72 74 73
3 140 76 138
3 140 138 135
3 140 135 134
3 140 134 141
3 140 141 142
3 140 142 143
3 140 143 76
3 76 143 77
3 77 143 78
3 78 143 144
3 78 144 79
3 79 144 145
3 79 145 146
3 79 146 147
3 79 147 148
3 79 148 149
3 79 149 80
3 80 149 81
3 81 149 150
3 81 150 151
3 81 151 152
3 81 152 82
3 82 152 153
3 82 153 83
3 83 153 154
3 83 154 84
3 84 154 155
3 84 155 156
3 84 156 85
3 85 156 157
3 85 157 86
3 86 157 158
3 86 158 87
3 87 158 159
3 87 159 88
3 88 159 160
3 88 160 103
3 88 103 89
3 161 162 163
3 161 163 164
3 161 164 165
3 161 165 162
3 162 165 166
3 162 166 167
3 162 167 163
3 163 167 168
3 163 168 169
3 163 169 164
3 164 169 170
3 164 170 171
3 164 171 165
3 165 171 166
3 166 171 167
3 167 171 172
3 167 172 168
3 168 172 173
3 168 173 174
3 168 174 169
3 169 174 175
3 169 175 170
3 170 175 176
3 170 176 172
3 170 172 171
3 177 174 178
3 177 178 179
3 177 179 180
3 177 180 181
3 177 181 182
3 177 182 174
3 174 182 183
3 174 183 157
3 174 157 175
3 175 157 156
3 175 156 176
3 176 156 155
3 176 155 173
3 176 173 172
3 184 185 186
3 184 186 187
3 184 187 188
3 184 188 189
3 184 189 185
3 185 189 190
3 185 190 191
3 185 191 186
3 186 191 187
3 187 191 188
3 188 191 192
3 188 192 193
3 188 193 189
3 189 193 179
3 189 179 190
3 190 179 178
3 190 178 191
3 191 178 192
3 192 178 174
3 192 174 173
3 192 173 193
3 193 173 180
3 193 180 179
3 154 194 155
3 155 194 195
3 155 195 173
3 173 195 196
3 173 196 180
3 180 196 197
3 180 197 198
3 180 198 199
3 180 199 181
3 181 199 153
3 181 153 152
3 181 152 182
3 182 152 151
3 182 151 158
3 182 158 183
3 183 158 157
3 198 197 200
3 198 200 195
3 198 195 194
3 198 194 199
3 199 194 154
3 199 154 153
3 197 196 201
3 197 201 200
3 200 201 195
3 195 201 196
3 160 202 103
3 103 202 104
3 104 202 203
3 104 203 204
3 104 204 106
3 104 106 105
3 205 206 207
3 205 207 208
3 205 208 209
3 205 209 210
3 205 210 106
3 205 106 204
3 205 204 206
3 206 204 211
3 206 211 207
3 207 211 212
3 207 212 213
3 207 213 208
3 208 213 214
3 208 214 209
3 209 214 215
3 209 215 210
3 210 215 216
3 210 216 107
3 210 107 106
3 212 217 218
3 212 218 213
3 213 218 219
3 213 219 214
3 214 219 220
3 214 220 215
3 215 220 221
3 215 221 222
3 215 222 216
3 216 222 223
3 216 223 108
3 216 108 107
3 150 159 158
3 150 158 151
3 202 160 224
3 202 224 148
3 202 148 203
3 203 148 147
3 203 147 225
3 203 225 226
3 203 226 204
3 204 226 211
3 211 226 225
3 211 225 227
3 211 227 228
3 211 228 212
3 212 228 229
3 212 229 217
3 217 229 230
3 217 230 231
3 217 231 218
3 218 231 219
3 219 231 232
3 219 232 233
3 219 233 220
3 220 233 234
3 220 234 221
3 221 234 235
3 221 235 222
3 222 235 236
3 222 236 223
3 223 236 237
3 223 237 108
3 108 237 109
3 109 237 110
3 110 237 238
3 110 238 111
3 111 238 239
3 111 239 112
3 112 239 240
3 112 240 34
3 112 34 241
3 112 241 242
3 112 242 243
3 112 243 244
3 112 244 113
3 113 244 114
3 114 244 115
3 115 244 245
3 115 245 29
3 115 29 116
3 116 29 28
3 146 145 246
3 146 246 247
3 146 247 225
3 146 225 147
3 75 138 76
3 225 247 248
3 225 248 227
3 227 248 249
3 227 249 228
3 228 249 229
3 229 249 248
3 229 248 250
3 229 250 251
3 229 251 230
3 230 251 252
3 230 252 253
3 230 253 254
3 230 254 255
3 230 255 231
3 231 255 232
3 232 255 256
3 232 256 233
3 233 256 257
3 233 257 258
3 233 258 234
3 234 258 235
3 235 258 259
3 235 259 260
3 235 260 236
3 236 260 261
3 236 261 262
3 236 262 237
3 237 262 263
3 237 263 264
3 237 264 265
3 237 265 238
3 238 265 266
3 238 266 239
3 239 266 267
3 239 267 240
3 240 267 268
3 240 268 35
3 240 35 34
3 150 224 160
3 150 160 159
3 224 149 148
3 149 224 150
3 269 270 247
3 269 247 246
3 269 246 271
3 269 271 272
3 269 272 252
3 269 252 270
3 270 252 251
3 270 251 250
3 270 250 273
3 270 273 274
3 270 274 247
3 247 274 275
3 247 275 248
3 248 275 276
3 248 276 250
3 250 276 273
3 273 276 274
3 274 276 275
3 277 278 279
3 277 279 280
3 277 280 281
3 277 281 282
3 277 282 278
3 278 282 283
3 278 283 125
3 278 125 279
3 279 125 284
3 279 284 280
3 280 284 285
3 280 285 286
3 280 286 287
3 280 287 281
3 281 287 288
3 281 288 289
3 281 289 290
3 281 290 291
3 281 291 282
3 282 291 292
3 282 292 293
3 282 293 294
3 282 294 283
3 283 294 130
3 283 130 128
3 283 128 125
3 295 121 120
3 295 120 117
3 295 117 296
3 295 296 297
3 295 297 285
3 295 285 284
3 295 284 122
3 295 122 121
3 298 264 263
3 298 263 299
3 298 299 300
3 298 300 288
3 298 288 264
3 264 288 287
3 264 287 265
3 265 287 266
3 266 287 301
3 266 301 267
3 267 301 268
3 268 301 302
3 268 302 303
3 268 303 35
3 35 303 36
3 36 303 297
3 36 297 296
3 36 296 23
3 23 296 24
3 24 296 117
3 125 124 284
3 284 124 122
3 131 304 141
3 131 141 134
3 305 306 307
3 305 307 308
3 305 308 309
3 305 309 306
3 306 309 310
3 306 310 311
3 306 311 312
3 306 312 307
3 307 312 313
3 307 313 314
3 307 314 308
3 308 314 315
3 308 315 309
3 309 315 310
3 310 315 314
3 310 314 316
3 310 316 311
3 311 316 317
3 311 317 318
3 311 318 312
3 312 318 319
3 312 319 313
3 313 319 320
3 313 320 316
3 313 316 314
3 321 322 323
3 321 323 319
3 321 319 324
3 321 324 325
3 321 325 326
3 321 326 322
3 322 326 327
3 322 327 328
3 322 328 329
3 322 329 323
3 323 329 330
3 323 330 331
3 323 331 319
3 319 331 320
3 320 331 327
3 320 327 326
3 320 326 332
3 320 332 333
3 320 333 334
3 320 334 317
3 320 317 316
3 335 336 337
3 335 337 338
3 335 338 328
3 335 328 339
3 335 339 336
3 336 339 330
3 336 330 337
3 337 330 338
3 338 330 329
3 338 329 328
3 340 341 334
3 340 334 342
3 340 342 343
3 340 343 344
3 340 344 345
3 340 345 341
3 341 345 290
3 341 290 346
3 341 346 347
3 341 347 334
3 334 347 317
3 317 347 318
3 318 347 348
3 318 348 319
3 319 348 349
3 319 349 324
3 324 349 350
3 324 350 351
3 324 351 352
3 324 352 325
3 325 352 344
3 325 344 343
3 325 343 326
3 326 343 353
3 326 353 354
3 326 354 332
3 332 354 355
3 332 355 333
3 333 355 356
3 333 356 353
3 333 353 342
3 333 342 334
3 291 290 345
3 291 345 357
3 291 357 292
3 292 357 358
3 292 358 359
3 292 359 360
3 292 360 361
3 292 361 293
3 293 361 362
3 293 362 294
3 294 362 304
3 294 304 130
3 130 304 131
3 350 349 348
3 350 348 363
3 350 363 364
3 350 364 365
3 350 365 366
3 350 366 351
3 351 366 358
3 351 358 352
3 352 358 357
3 352 357 344
3 344 357 345
3 353 356 354
3 354 356 355
3 289 364 363
3 289 363 346
3 289 346 290
3 367 300 299
3 367 299 368
3 367 368 369
3 367 369 366
3 367 366 365
3 367 365 300
3 300 365 364
3 300 364 288
3 288 364 289
3 339 328 327
3 339 327 331
3 339 331 330
3 346 363 348
3 346 348 347
3 370 371 360
3 370 360 372
3 370 372 369
3 370 369 368
3 370 368 373
3 370 373 371
3 371 373 374
3 371 374 375
3 371 375 360
3 360 375 145
3 360 145 144
3 360 144 361
3 361 144 143
3 361 143 362
3 362 143 304
3 304 143 142
3 304 142 141
3 261 373 368
3 261 368 299
3 261 299 263
3 261 263 262
3 375 246 145
3 246 375 271
3 271 375 374
3 271 374 376
3 271 376 377
3 271 377 378
3 271 378 272
3 272 378 379
3 272 379 380
3 272 380 254
3 272 254 253
3 272 253 252
3 373 381 374
3 374 381 382
3 374 382 376
3 376 382 383
3 376 383 380
3 376 380 384
3 376 384 377
3 377 384 378
3 378 384 379
3 379 384 380
3 260 381 373
3 260 373 261
3 382 257 256
3 382 256 383
3 383 256 254
3 383 254 380
3 258 257 382
3 258 382 259
3 259 382 260
3 260 382 381
3 256 255 254
3 302 286 285
3 302 285 297
3 302 297 303
3 301 287 286
3 301 286 302
3 360 359 372
3 372 359 358
3 372 358 366
3 372 366 369
3 353 343 342
3 26 28 27
3 385 244 386
3 385 386 387
3 385 387 30
3 385 30 245
3 385 245 244
3 243 242 386
3 243 386 244
3 387 388 31
3 387 31 30
3 29 245 30
3 242 388 387
3 242 387 386
3 33 389 34
3 34 389 241
3 241 389 242
3 242 389 32
3 242 32 388
3 388 32 31
3 33 32 389
3 390 391 392
3 390 392 393
3 393 392 394
3 394 392 395
3 395 392 396
3 396 392 397
3 397 392 398
3 398 392 399
3 399 392 400
3 400 392 401
3 401 392 402
3 402 392 403
3 403 392 404
3 404 392 405
3 405 392 406
3 406 392 407
3 407 392 408
3 408 392 391
3 409 410 411
3 409 411 412
3 412 411 413
3 413 411 414
3 414 411 415
3 415 411 416
3 416 411 417
3 417 411 418
3 418 411 419
3 419 411 420
3 420 411 421
3 421 411 422
3 422 411 423
3 423 411 424
3 424 411 425
3 425 411 426
3 426 411 427
3 427 411 410
3 428 429 430
3 428 430 431
3 431 430 432
3 432 430 433
3 433 430 434
3 434 430 435
3 435 430 436
3 436 430 437
3 437 430 438
3 438 430 439
3 439 430 440
3 440 430 441
3 441 430 442
3 442 430 443
3 443 430 444
3 444 430 429
