ply
format ascii 1.0
comment Created by Blender 2.82 (sub 7) - www.blender.org, source file: ''
element vertex 483
property float x
property float y
property float z
property float nx
property float ny
property float nz
element face 947
property list uchar uint vertex_indices
end_header
0.000000 0.000000 0.050000 0.000000 -1.000000 0.000000
0.000000 0.000000 -0.050000 0.000000 -1.000000 0.000000
0.050000 0.000000 0.000000 0.000000 -1.000000 0.000000
-2.350000 -0.000000 5.050000 -0.001190 -0.671346 -0.741111
-4.550000 -0.000001 5.550000 -0.113620 -0.676321 -0.727775
-5.550001 1.499999 5.950000 -0.725761 -0.006714 -0.687887
-6.250001 7.649999 5.800000 -0.696310 0.271126 -0.664541
-2.100001 6.650000 4.700000 0.033631 0.141820 -0.989288
1.999999 5.650001 5.800000 0.819758 0.109775 -0.562059
0.700000 0.000000 6.000000 0.578784 -0.668386 -0.467177
0.700000 0.000000 11.500000 0.587451 -0.674276 0.447432
-2.350000 -0.000000 12.600000 0.006378 -0.666372 0.745567
-5.350000 -0.000001 6.950000 -0.491775 -0.869198 -0.050996
-6.350000 -0.000001 5.550000 -0.830988 -0.358684 -0.425153
-6.450001 1.499999 8.750000 -0.999359 0.033998 -0.009644
-6.800001 7.299999 7.550000 -0.953703 0.271096 -0.130039
-6.500001 7.649999 7.600000 -0.869533 0.384716 -0.309580
-5.500001 9.349999 7.850000 -0.358470 0.890316 -0.280740
-4.450002 9.949999 6.550000 -0.672689 0.386120 -0.631153
-2.050002 9.550000 5.750000 0.026978 0.169378 -0.985168
0.399999 9.150001 6.550000 0.786950 0.140019 -0.600879
0.399999 8.700000 10.950000 0.796106 0.215613 0.565416
1.999999 5.650001 11.750000 0.823267 0.125797 0.553484
11.299998 8.850002 2.250000 0.396649 -0.508621 0.764153
8.650000 8.650002 4.150000 -0.033479 -0.718925 -0.694235
10.949999 7.800002 0.000000 -0.494919 -0.868923 0.000000
11.849999 6.100002 0.000000 -0.586657 -0.809809 0.000000
11.900000 6.300002 1.150000 -0.538377 -0.672964 0.507187
12.699999 6.200002 1.150000 0.414014 -0.663839 0.622761
12.699998 8.850002 1.800000 0.678182 0.011567 0.734764
12.349998 10.150002 1.750000 0.679678 0.165105 0.714652
12.249998 10.700002 1.750000 0.786126 0.122990 0.605640
11.099998 11.650002 2.650000 0.823725 0.054170 0.564379
10.049998 13.100002 5.350000 0.747673 0.480239 0.458602
10.349998 9.550002 4.650000 0.984191 -0.172674 0.038942
8.549999 5.800002 3.800000 0.005921 0.289560 -0.957121
6.949999 9.700001 4.650000 -0.855495 -0.425977 0.294351
6.449999 8.050001 0.000000 -0.173467 -0.984832 -0.000214
8.650000 8.650002 -4.150000 -0.033479 -0.718925 0.694235
11.299998 8.850002 -2.250000 0.393902 -0.509232 -0.765160
11.900000 6.300002 -1.150000 -0.538377 -0.672964 -0.507187
13.299999 5.950003 0.000000 0.721671 -0.690573 0.047365
13.299999 6.450003 -0.100000 0.896756 -0.441847 -0.024171
12.949999 6.600002 0.650000 0.825434 -0.209967 0.523972
12.949999 8.350002 1.100000 0.843379 0.029359 0.536454
13.349998 9.400002 0.000000 0.984771 0.173528 0.007324
12.849998 11.000002 0.000000 0.945524 0.325480 0.001923
10.699997 14.700002 2.600000 0.756615 0.604175 0.249977
8.399998 15.200001 3.900000 0.579180 0.395367 0.712882
8.749998 13.750001 5.350000 0.101657 0.755028 0.647725
8.749998 12.350001 7.250000 0.018433 0.540849 0.840907
10.049998 12.000002 6.650000 0.756493 0.381939 0.530839
10.349998 9.600002 7.250000 0.810694 0.152532 0.565203
10.599999 5.800002 4.700000 0.785821 0.382153 -0.486190
11.799999 4.050002 4.000000 0.805353 0.186163 -0.562792
8.699999 4.250001 3.100000 0.012604 0.128697 -0.991577
5.599999 4.550001 4.000000 -0.772698 0.224708 -0.593616
6.449999 5.800001 4.700000 -0.765984 0.446547 -0.462416
6.449999 5.450001 7.850000 -0.621479 0.616810 0.482986
6.949999 9.600001 7.250000 -0.803156 0.211219 0.557024
7.449998 12.000001 6.650000 -0.773247 0.359050 0.522599
7.449998 13.400002 5.350000 -0.189123 0.375378 0.907346
4.699998 14.350001 5.450000 0.140873 -0.119602 0.982757
3.949998 9.850001 3.900000 -0.212958 -0.677938 0.703574
3.299998 9.900002 3.750000 -0.138066 -0.753655 0.642567
3.299999 8.750001 0.000000 -0.207434 -0.978240 0.000000
3.299998 9.900002 -3.750000 -0.136814 -0.754936 -0.641316
6.949999 9.700001 -4.650000 -0.855586 -0.426160 -0.293802
8.549999 5.800002 -3.800000 0.005921 0.289560 0.957121
10.349998 9.550002 -4.650000 0.990875 -0.131291 -0.029572
10.299998 9.900002 -4.700000 0.979827 0.068422 -0.187719
10.049998 13.100002 -5.350000 0.748314 0.479141 -0.458693
11.099998 11.650002 -2.650000 0.823725 0.054170 -0.564379
12.249998 10.700002 -1.750000 0.775353 0.144993 -0.614612
12.699998 8.850002 -1.800000 0.665853 0.020814 -0.745750
12.699999 6.200002 -1.150000 0.361827 -0.680349 -0.637318
12.949999 6.600002 -0.850000 0.773034 -0.261605 -0.577837
13.949999 7.250002 -0.550000 0.633808 -0.397565 -0.663472
14.199999 7.200003 -0.100000 0.856929 -0.515366 0.000641
13.949999 7.250002 0.350000 0.641194 -0.404401 0.652150
13.799999 8.350002 0.650000 0.457289 0.445051 0.769921
13.349999 8.700002 -0.100000 0.760399 0.648762 -0.029054
10.699997 14.700002 -2.600000 0.758385 0.601886 -0.250099
11.299998 13.550002 0.000000 0.791589 0.611042 0.000000
8.399998 16.050003 0.000000 0.634480 0.772912 0.000946
9.099998 16.100002 2.000000 0.650990 0.747246 0.133274
8.799997 16.400002 1.900000 0.785546 0.597552 -0.160588
8.999997 17.300003 3.050000 0.913846 0.275674 -0.298074
8.849998 16.650002 4.100000 0.786218 -0.216010 0.578906
6.199997 17.250002 4.800000 0.385907 0.272988 0.881191
8.649999 9.600001 7.900000 -0.000549 0.178961 0.983825
-4.550000 -0.000001 12.200000 -0.114139 -0.601550 0.790613
-5.350000 -0.000001 10.750000 -0.500992 -0.864986 0.028138
-5.600000 1.499999 11.550000 -0.761925 -0.002838 0.647633
-6.250000 -0.000001 12.100000 -0.810938 -0.371044 0.452406
-6.250000 -0.000001 9.600000 -0.542344 -0.639668 0.544664
-6.250000 -0.000001 7.900000 -0.520249 -0.615650 -0.591815
8.800000 0.000001 3.750000 -0.005860 -0.702017 -0.712119
7.050000 0.000001 4.450000 -0.127445 -0.778619 -0.614368
6.400000 1.150001 4.550000 -0.724815 -0.189642 -0.662282
11.000000 0.000002 4.650000 0.602832 -0.692160 -0.396771
8.800000 0.000001 8.750000 0.001343 -0.715232 0.698874
7.000000 0.000001 8.300000 -0.083895 -0.757134 0.647816
6.550000 0.000001 7.550000 -0.470840 -0.879971 0.062746
6.550000 0.000001 5.150000 -0.486343 -0.871761 -0.058718
6.000000 0.000001 4.300000 -0.769463 -0.409131 -0.490402
5.700000 1.150001 6.400000 -0.998444 -0.055269 0.004059
5.599999 4.550001 8.750000 -0.717307 0.306803 0.625538
8.549999 5.450002 8.450000 0.017762 0.443464 0.896084
10.549999 6.050002 7.750000 0.793085 0.145024 0.591571
10.599999 5.450002 7.850000 0.666646 0.531754 0.522294
11.799999 4.050002 8.750000 0.764244 0.237648 0.599506
11.000000 0.000002 8.100000 0.584735 -0.685995 0.432936
8.699999 4.250001 9.400001 0.019440 0.242622 0.969909
6.350000 1.150001 8.250000 -0.689077 -0.190527 0.699149
6.000000 0.000001 8.400001 -0.777673 -0.435621 0.453200
5.900000 0.000001 6.900000 -0.483963 -0.655843 0.579302
5.900000 0.000001 5.800000 -0.498703 -0.632008 -0.593127
5.000000 0.000001 6.350000 -0.933287 -0.358806 -0.013337
3.399996 23.150000 0.000000 0.609088 0.791742 0.045869
3.749996 23.600000 3.350000 0.496445 0.860805 -0.111850
5.099997 21.650000 2.900000 0.907620 0.319254 -0.272500
6.199997 18.050003 0.000000 0.786096 0.618091 0.000000
5.099997 21.650000 -2.900000 0.907620 0.319254 0.272500
3.749996 23.600000 -3.350000 0.508774 0.855708 0.094119
1.999996 24.900000 -3.350000 0.557207 0.810144 0.181982
2.749996 23.300001 0.000000 0.298868 0.952239 0.062502
1.999996 24.900000 3.350000 0.564562 0.803064 -0.190527
1.999996 23.600000 5.800000 0.488754 0.561754 0.667440
3.399996 22.800001 5.750000 0.329173 0.579943 0.745170
4.549996 23.200001 5.700000 -0.095859 0.465712 0.879696
4.899996 23.750000 4.000000 0.026307 0.859096 -0.511093
5.849996 22.350000 3.600000 0.874844 0.005097 -0.484359
4.749997 20.600000 5.300000 0.722068 -0.070620 0.688192
6.649997 18.450003 2.450000 0.711234 0.701071 -0.051119
8.049997 16.300003 0.000000 0.644093 0.764916 0.000000
8.799997 16.400002 -1.900000 0.769372 0.618152 0.160924
6.649997 18.450003 -2.450000 0.711997 0.700064 0.053774
4.749997 20.600000 -5.300000 0.718436 -0.052950 -0.693533
5.849996 22.350000 -3.600000 0.874844 0.005097 0.484359
4.899996 23.750000 -4.000000 0.026307 0.859096 0.511093
4.549996 23.200001 -5.700000 -0.095859 0.465712 -0.879696
3.399996 22.800001 -5.750000 0.329173 0.579943 -0.745170
1.999996 23.600000 -5.800000 0.488754 0.561754 -0.667440
1.749996 25.900000 -4.350000 0.698019 0.678091 0.229987
-0.300004 26.300001 -4.350000 -0.464278 0.806909 0.365093
-1.000004 25.550001 -3.400000 -0.292947 0.951048 0.098239
-1.000004 24.550001 0.000000 -0.011811 0.999908 0.000000
-1.000004 25.550001 3.400000 -0.292947 0.951048 -0.098239
-0.300004 26.300001 4.350000 -0.464278 0.806909 -0.365093
1.749996 25.900000 4.350000 0.698019 0.678091 -0.229987
1.749996 25.000000 5.950000 0.637623 0.200842 0.743675
-1.000004 24.250000 5.800000 -0.352672 0.655995 0.667257
-0.150004 22.200001 8.000000 0.215430 0.682730 0.698172
1.499997 20.800001 8.000000 0.637806 0.266518 0.722587
5.599997 21.600000 5.400000 0.736106 -0.353038 0.577471
5.549996 24.800001 5.150000 0.255867 0.935209 0.244697
-2.550004 22.150000 8.000000 -0.476394 0.638569 0.604358
-1.950004 21.650000 8.600000 -0.360210 0.771203 0.524796
-0.350004 21.700001 8.600000 0.353130 0.907926 0.225623
0.799997 20.700001 8.600000 0.688864 0.458541 0.561418
0.999997 17.850000 9.950000 0.796503 0.192206 0.573229
1.499997 15.400001 6.600000 0.793481 -0.252968 0.553514
4.949997 20.000000 5.200000 0.678854 0.133641 0.721976
7.649997 17.750002 4.650000 -0.103549 0.295389 0.949736
7.849997 18.350002 3.350000 0.002014 0.940367 -0.340098
8.549997 19.600002 4.600000 0.180090 0.911771 0.369060
-4.000002 11.999999 4.550000 -0.305856 -0.635304 0.709098
-1.250003 15.650001 6.150000 -0.138432 -0.976135 -0.167211
-4.100003 16.400000 6.600000 -0.909696 -0.062990 0.410443
-6.100002 13.150000 3.900000 -0.779382 -0.447676 0.438276
-4.000002 10.799999 2.250000 -0.438246 -0.865078 0.243965
0.649998 10.450000 4.000000 -0.127812 -0.753899 0.644398
1.149998 12.250000 6.400000 0.769494 -0.103153 -0.630238
-1.650002 12.600000 5.700000 0.011322 0.060579 -0.998077
-4.450003 13.199999 6.400000 -0.779992 0.079470 -0.620685
-4.450002 12.400000 10.850000 -0.816401 0.091433 0.570177
-4.100002 15.349999 10.500000 -0.787469 0.216315 0.577074
-3.050003 19.150000 9.950000 -0.666646 0.344371 0.661000
-4.150003 19.850000 6.150000 -0.785821 0.025269 0.617878
-7.250003 19.749998 4.400000 -0.393384 0.155309 0.906125
-7.000003 17.449999 4.000000 -0.413953 -0.155919 0.896817
-6.700003 15.650000 4.000000 -0.572161 -0.396558 0.717856
-6.550003 15.199999 3.950000 -0.875332 -0.265572 0.403974
-6.700003 15.099999 0.000000 -0.446822 -0.894620 0.001587
-6.100002 12.699999 1.800000 -0.862606 -0.499863 0.077700
-4.000002 10.549999 0.000000 -0.474624 -0.880154 0.000000
0.649998 9.350000 0.000000 -0.231849 -0.972747 0.000000
1.199998 9.200000 0.000000 -0.233039 -0.972442 0.000000
-8.900004 22.599998 2.550000 -0.120914 0.810968 0.572436
-10.650004 22.249998 3.150000 -0.205603 0.068880 0.976196
-10.550004 21.849998 2.750000 -0.024537 -0.448317 0.893521
-10.450004 20.999998 2.700000 -0.494675 0.366466 0.787988
-10.350003 20.249998 3.550000 -0.392560 0.352031 0.849666
-8.450004 22.649998 2.700000 -0.307505 0.765282 0.565477
-8.950004 22.749998 1.200000 -0.121464 0.986419 -0.110263
-10.900004 22.799999 2.350000 -0.523453 0.832850 0.179815
-11.750004 21.149998 1.800000 -0.882626 0.402539 0.242744
-12.200003 18.949999 3.000000 -0.677053 0.252785 0.691122
-11.550003 16.699999 3.200000 -0.259529 -0.621265 0.739341
-9.300003 17.249998 3.800000 -0.325022 -0.500748 0.802210
-8.900003 16.399998 3.600000 -0.615070 -0.177862 0.768120
-7.550003 14.949999 3.150000 0.180670 -0.838160 0.514573
-10.750004 22.349998 1.150000 -0.604480 0.787927 -0.117161
-11.950003 20.249998 0.000000 -0.663289 0.748314 0.002625
-12.350003 19.049999 1.200000 -0.738548 0.547838 0.392926
-14.050003 17.749998 0.000000 -0.970824 0.239753 0.000000
-13.300003 17.749998 1.850000 -0.849696 0.103946 0.516861
-12.250003 16.449999 2.600000 -0.324534 -0.687185 0.649922
-12.300003 16.349998 0.000000 0.287423 -0.957793 0.000000
-8.400003 17.649998 0.000000 -0.493362 -0.869808 0.000000
-8.050003 16.749998 0.000000 -0.961730 0.273904 0.000000
-9.800003 15.899999 3.250000 -0.531449 0.533341 0.658071
-8.850002 14.349998 2.550000 0.077822 -0.849666 0.521500
-7.850002 14.549999 0.000000 0.393017 -0.919492 0.000000
-7.550003 14.949999 -3.150000 0.180670 -0.838160 -0.514573
-6.700003 15.650000 -4.000000 -0.599292 -0.352397 -0.718741
-6.100002 13.150000 -3.900000 -0.764519 -0.461989 -0.449477
-6.100002 12.699999 -1.800000 -0.862606 -0.499863 -0.077700
-6.100002 12.549999 0.000000 -0.861080 -0.508438 0.000000
-4.000002 10.799999 -2.250000 -0.438490 -0.864864 -0.244362
0.649998 10.450000 -4.000000 -0.127812 -0.753899 -0.644398
1.499997 15.400001 -6.600000 0.797723 -0.243171 -0.551775
4.099998 14.500001 -5.650000 0.271767 -0.197546 -0.941862
4.699998 14.350001 -5.450000 0.137852 -0.111148 -0.984161
7.449998 13.400002 -5.350000 -0.189123 0.375378 -0.907346
7.449998 12.000001 -6.650000 -0.773247 0.359050 -0.522599
6.949999 9.600001 -7.250000 -0.803156 0.211219 -0.557024
6.449999 5.450001 -7.850000 -0.621479 0.616810 -0.482986
6.449999 5.800001 -4.700000 -0.765984 0.446547 0.462416
5.599999 4.550001 -4.000000 -0.772698 0.224708 0.593616
8.699999 4.250001 -3.100000 0.012604 0.128697 0.991577
11.799999 4.050002 -4.000000 0.805567 0.186071 0.562487
10.599999 5.800002 -4.700000 0.785607 0.381756 0.486892
10.349998 9.600002 -7.250000 0.811212 0.154302 -0.563982
10.049998 12.000002 -6.650000 0.756493 0.381939 -0.530839
8.749998 12.350001 -7.250000 0.018433 0.540849 -0.840907
8.749998 13.750001 -5.350000 0.101657 0.755028 -0.647725
8.399998 15.200001 -3.900000 0.577624 0.394543 -0.714591
-6.800002 9.849999 9.600000 0.336589 0.592395 0.731925
-6.850001 9.849999 8.100000 0.229682 0.674459 -0.701651
-7.900002 11.549999 9.000000 -0.241371 0.968963 0.052950
-8.100002 8.999999 9.800000 -0.707480 -0.216742 0.672658
-6.500001 7.649999 9.850000 -0.868618 0.372509 0.326670
-5.400002 9.299999 9.650001 -0.224006 0.916013 0.332743
-8.100002 8.999999 7.950000 -0.754479 -0.178228 -0.631642
-6.800001 7.299999 9.950000 -0.958159 0.258400 0.122837
-6.250001 7.649999 11.750000 -0.693136 0.309153 0.651112
-4.450002 9.449999 10.950000 -0.598956 0.498184 0.626911
-4.450002 10.099999 10.900001 -0.837153 0.023286 0.546434
1.149998 11.500000 10.850000 0.826777 -0.108066 0.552049
-2.050001 9.100000 11.950000 0.036287 0.229835 0.972533
-2.100001 6.650000 12.950000 0.036805 0.159795 0.986450
-6.700001 6.549999 9.950000 -0.979553 -0.104465 0.171850
-1.650002 12.100000 11.950000 0.011200 0.074129 0.997162
-1.300003 15.100000 11.500000 0.025422 0.158452 0.987030
-0.900003 19.000000 10.750000 0.063997 0.377483 0.923765
-0.800003 19.150000 10.650001 0.143590 0.064455 0.987518
-2.300003 19.650000 9.900001 -0.477309 0.374737 0.794794
-4.200004 20.500000 6.100000 -0.754204 0.253059 0.605914
-3.950004 23.350000 4.450000 -0.501724 0.683096 0.530656
-4.350004 24.250000 2.300000 -0.341960 0.937864 0.058596
-3.950004 23.650000 0.000000 -0.269509 0.962981 0.000214
-8.800004 22.299999 0.000000 -0.071291 0.997436 0.000000
-10.750004 22.599998 0.000000 -0.528031 0.849208 0.000000
-10.700003 15.449998 2.900000 -0.664937 0.427107 0.612690
-10.600003 15.199998 0.000000 -0.400403 0.916318 0.000000
-12.700002 14.599998 0.000000 -0.965728 0.069033 0.250191
-11.400003 15.199998 2.450000 -0.552355 0.248085 0.795831
-12.100003 14.949998 2.050000 -0.722190 0.068453 0.688284
-10.900002 14.099998 1.700000 -0.198737 -0.872250 0.446822
-9.600002 13.899999 0.000000 0.182287 -0.983215 0.000000
-8.850002 14.349998 -2.550000 0.077822 -0.849666 -0.521500
-8.900003 16.399998 -3.600000 -0.615070 -0.177862 -0.768120
-7.000003 17.449999 -4.000000 -0.413953 -0.155919 -0.896817
-4.100003 16.400000 -6.600000 -0.910337 -0.056978 -0.409864
-5.650002 12.900000 -4.000000 -0.498703 -0.600879 -0.624622
-0.300004 25.450001 6.000000 -0.516526 0.170537 0.839076
-0.150004 27.250000 5.800000 -0.307108 0.868648 0.388745
-10.750004 22.349998 -1.150000 -0.604480 0.787927 0.117161
-11.750004 21.149998 -1.800000 -0.882626 0.402539 -0.242744
-12.200003 18.949999 -3.000000 -0.677053 0.252785 -0.691122
-12.350003 19.049999 -1.200000 -0.739647 0.546190 -0.393139
-13.850003 20.349998 -0.650000 -0.296487 0.202551 -0.933287
-13.650004 20.949999 0.000000 0.765801 0.643055 0.003693
-13.850003 20.349998 0.650000 -0.284738 0.213385 0.934538
-13.450003 18.299999 0.000000 -0.895962 0.444044 -0.001526
-13.300003 17.749998 -1.850000 -0.849696 0.103946 -0.516861
-13.650003 15.949998 0.000000 -0.569231 -0.822169 0.000000
-13.450003 16.099998 1.000000 -0.497360 -0.844386 0.199042
-12.950003 16.249998 2.000000 -0.276986 -0.828364 0.486862
-13.450003 16.099998 -1.000000 -0.497360 -0.844386 -0.199042
-12.950003 16.249998 -2.000000 -0.276986 -0.828364 -0.486862
-12.250003 16.449999 -2.600000 -0.132878 -0.860347 -0.492019
-11.550003 16.699999 -3.200000 -0.022950 -0.786187 -0.617542
-9.300003 17.249998 -3.800000 -0.325022 -0.500748 -0.802210
-9.800003 15.899999 -3.250000 -0.531449 0.533341 -0.658071
-10.700003 15.449998 -2.900000 -0.664937 0.427107 -0.612690
-11.400003 15.199998 -2.450000 -0.552355 0.248085 -0.795831
-12.400003 14.749998 -1.000000 -0.906919 0.348704 -0.236305
-11.500002 13.749998 0.000000 -0.298776 -0.954314 0.000000
-12.400003 14.749998 1.000000 -0.955596 0.013001 0.294351
-12.000003 15.749998 2.250000 -0.444380 -0.164586 0.880551
-7.600000 -0.000001 8.750000 -0.946928 -0.321421 0.000000
-10.900002 14.099998 -1.700000 -0.198737 -0.872250 -0.446822
-12.100003 14.949998 -2.050000 -0.722190 0.068453 -0.688284
-3.950004 24.400000 2.450000 -0.383404 0.920225 0.078555
-3.950004 24.400000 -2.450000 -0.358226 0.930876 -0.071566
-8.950004 22.749998 -1.200000 -0.122776 0.986053 0.112247
-10.900004 22.799999 -2.350000 -0.523453 0.832850 -0.179815
-10.650004 22.249998 -3.150000 -0.205603 0.068880 -0.976196
-10.550004 21.849998 -2.750000 -0.024537 -0.448317 -0.893521
-10.450004 20.999998 -2.700000 -0.494675 0.366466 -0.787988
-10.350003 20.249998 -3.550000 -0.392560 0.352031 -0.849666
1.499998 14.400001 10.500000 0.839381 0.023835 0.542955
0.449997 18.750000 9.900001 0.631947 0.251778 0.732933
-0.050003 20.800001 10.850000 0.752403 -0.003418 0.658681
-0.700003 20.950001 11.250000 0.000427 -0.033387 0.999420
-1.600003 21.300001 10.650001 -0.782250 0.193548 0.592090
1.399998 13.750000 10.550000 0.831996 -0.044191 0.552995
8.999997 17.300003 -3.050000 0.913846 0.275674 0.298074
7.849997 18.350002 -3.350000 0.002014 0.940367 0.340098
7.649997 17.750002 -4.650000 -0.103549 0.295389 -0.949736
6.199997 17.250002 -4.800000 0.388867 0.266610 -0.881863
1.499997 20.800001 -8.000000 0.636891 0.266854 -0.723258
5.599997 21.600000 -5.400000 0.736106 -0.353038 -0.577471
5.549996 24.800001 -5.150000 0.255867 0.935209 -0.244697
-12.000003 15.749998 -2.250000 -0.444380 -0.164586 -0.880551
-7.250003 19.749998 -4.400000 -0.390820 0.154668 -0.907346
-8.900004 22.599998 -2.550000 -0.147557 0.806421 -0.572619
-3.950004 23.350000 -4.450000 -0.500809 0.680929 -0.534288
-4.650003 20.350000 -5.800000 -0.547655 0.273934 -0.790551
-1.000004 24.250000 -5.800000 -0.352672 0.655995 -0.667257
-2.550004 22.150000 -8.000000 -0.477035 0.638386 -0.604022
-4.200004 20.500000 -6.100000 -0.776025 0.270913 -0.569536
-3.050003 19.150000 -9.950000 -0.666890 0.343730 -0.661092
-4.100002 15.349999 -10.500000 -0.794305 0.185888 -0.578356
-4.150002 14.699999 -10.550000 -0.794702 0.169073 -0.582934
-4.500002 12.400000 -10.900001 -0.814508 0.096927 -0.571978
-4.500002 13.199999 -6.350000 -0.778558 0.080874 0.622303
-1.250003 15.650001 -6.150000 -0.136998 -0.974792 0.175970
-4.000002 11.999999 -4.550000 -0.310404 -0.633320 -0.708884
1.199998 12.250000 -6.350000 0.768578 -0.101810 0.631550
1.199998 11.500000 -10.900001 0.823573 -0.114322 -0.555528
1.499998 14.400001 -10.500000 0.841487 0.064272 -0.536424
0.999997 17.850000 -9.950000 0.797266 0.191137 -0.572527
0.449997 18.750000 -9.900001 0.641682 0.250649 -0.724815
0.799997 20.700001 -8.600000 0.694998 0.467635 -0.546129
-0.150004 22.200001 -8.000000 0.217261 0.681936 -0.698386
1.749996 25.000000 -5.950000 0.637623 0.200842 -0.743675
-0.150004 27.250000 -5.800000 -0.307108 0.868648 -0.388745
-0.300004 25.450001 -6.000000 -0.516526 0.170537 -0.839076
-1.950004 21.650000 -8.600000 -0.358043 0.755608 -0.548448
-2.300003 19.650000 -9.900001 -0.466079 0.397015 -0.790643
-0.900003 19.000000 -10.750000 0.060244 0.356639 -0.932279
-1.300003 15.100000 -11.500000 0.023804 0.168035 -0.985473
-1.650002 12.100000 -12.000000 0.011048 0.074160 -0.997162
-2.050001 9.100000 -11.950000 0.037141 0.219886 -0.974792
-4.450002 9.449999 -10.950000 -0.614185 0.477859 -0.628010
-4.450002 9.949999 -6.550000 -0.676962 0.375225 0.633137
-2.050002 9.550000 -5.750000 0.025513 0.160436 0.986694
-1.650002 12.600000 -5.650000 0.010987 0.059938 0.998138
0.399999 9.150001 -6.550000 0.787561 0.128697 0.602619
0.599998 9.400001 -10.900001 0.816370 -0.218818 -0.534440
-0.800003 19.150000 -10.650001 0.134251 0.105380 -0.985321
-0.700003 20.950001 -11.250000 -0.021119 -0.045259 -0.998749
-0.050003 20.800001 -10.850000 0.738945 0.010041 -0.673635
0.149996 21.550001 -9.800000 0.889859 0.450972 -0.068545
-0.350004 21.700001 -8.600000 0.368755 0.898343 -0.238624
8.800000 0.000001 -3.750000 -0.005860 -0.702017 0.712119
11.000000 0.000002 -4.650000 0.602832 -0.692160 0.396771
11.000000 0.000002 -8.100000 0.585284 -0.683035 -0.436903
11.650000 3.350002 -8.600000 0.759056 -0.251869 -0.600269
11.799999 4.050002 -8.750000 0.759911 0.209235 -0.615406
10.599999 5.450002 -7.850000 0.672567 0.520432 -0.526048
8.549999 5.450002 -8.450000 0.016633 0.442793 -0.896451
8.649999 9.600001 -7.900000 -0.000549 0.178961 -0.983825
6.400000 1.150001 -4.550000 -0.724815 -0.189642 0.662282
5.599999 4.550001 -8.750000 -0.717307 0.306803 -0.625538
8.699999 4.250001 -9.400001 0.024598 0.239204 -0.970641
8.800000 0.000001 -8.750000 0.004120 -0.713553 -0.700583
6.350000 1.150001 -8.250000 -0.689077 -0.190527 -0.699149
5.700000 1.150001 -6.400000 -0.998444 -0.055269 -0.004059
7.050000 0.000001 -4.450000 -0.127445 -0.778619 0.614368
7.000000 0.000001 -8.300000 -0.083895 -0.757134 -0.647816
6.000000 0.000001 -8.400001 -0.777673 -0.435621 -0.453200
6.550000 0.000001 -7.550000 -0.470840 -0.879971 -0.062746
5.900000 0.000001 -6.900000 -0.483963 -0.655843 -0.579302
5.000000 0.000001 -6.350000 -0.933287 -0.358806 0.013337
5.900000 0.000001 -5.800000 -0.498703 -0.632008 0.593127
6.550000 0.000001 -5.150000 -0.486343 -0.871761 0.058718
8.849998 16.650002 -4.100000 0.786218 -0.216010 -0.578906
8.549997 19.600002 -4.600000 0.180090 0.911771 -0.369060
6.000000 0.000001 -4.300000 -0.769463 -0.409131 0.490402
-14.400003 19.949999 0.000000 -0.961425 -0.274972 -0.004639
-14.250004 22.299999 0.000000 -0.184179 0.982879 0.000000
-10.550003 16.349998 3.100000 0.286142 0.162145 -0.944334
-10.550003 16.349998 -3.100000 0.286142 0.162145 0.944334
-11.650003 15.899999 2.900000 -0.589007 -0.218146 0.778100
-11.650003 15.899999 -2.900000 0.589007 0.218146 0.778100
-12.900003 15.499998 1.500000 0.811457 0.360637 -0.459822
-12.900003 15.499998 -1.500000 0.811457 0.360637 0.459822
-12.850003 15.349998 -0.500000 0.866451 0.385083 0.317698
-12.850003 15.349998 0.500000 -0.866451 -0.385083 0.317698
-5.550001 1.499999 -5.950000 -0.725761 -0.006714 0.687887
-4.550000 -0.000001 -5.550000 -0.113620 -0.676321 0.727775
-2.350000 -0.000000 -5.050000 -0.001190 -0.671346 0.741111
-6.250001 7.649999 -5.800000 -0.693930 0.269387 0.667714
-6.800001 7.299999 -7.550000 -0.961760 0.235817 0.139225
-6.450001 1.499999 -8.750000 -0.999390 0.032960 0.009949
-5.350000 -0.000001 -6.950000 -0.491775 -0.869198 0.050996
-6.350000 -0.000001 -5.550000 -0.830988 -0.358684 0.425153
-2.350000 -0.000000 -12.600000 0.006317 -0.666158 -0.745750
0.700000 0.000000 -11.500000 0.587451 -0.674276 -0.447432
0.700000 0.000000 -6.000000 0.578784 -0.668386 0.467177
1.999999 5.650001 -5.800000 0.819758 0.109775 0.562059
-2.100001 6.650000 -4.700000 0.033631 0.141820 0.989288
-5.500001 9.349999 -7.850000 -0.356578 0.891476 0.279366
-6.550002 7.649999 -7.600000 -0.882595 0.347453 0.316630
-6.800001 7.299999 -9.950000 -0.951659 0.276131 -0.134404
-5.600000 1.499999 -11.550000 -0.761773 -0.003174 -0.647816
-5.350000 -0.000001 -10.750000 -0.500992 -0.864986 -0.028138
-6.250000 -0.000001 -9.600000 -0.542344 -0.639668 -0.544664
-7.600000 -0.000001 -8.750000 -0.946928 -0.321421 0.000000
-6.250000 -0.000001 -7.900000 -0.520249 -0.615650 0.591815
-4.550000 -0.000001 -12.200000 -0.114139 -0.601550 -0.790613
-6.250001 7.649999 -11.750000 -0.691885 0.309824 -0.652120
-2.100001 5.849999 -12.900001 -0.005768 -0.055330 -0.998444
1.999999 5.650001 -11.750000 0.823267 0.125797 -0.553484
-7.900002 11.549999 -9.000000 -0.241371 0.968963 -0.052950
-6.850001 9.849999 -8.100000 0.229682 0.674459 0.701651
-6.800002 9.849999 -9.600000 0.336589 0.592395 -0.731925
-8.100002 8.999999 -9.800000 -0.707480 -0.213385 -0.673727
-8.100002 8.999999 -7.950000 -0.756157 -0.171056 0.631611
-5.400002 9.299999 -9.650001 -0.224006 0.916013 -0.332743
-6.500001 7.649999 -9.850000 -0.864101 0.374279 -0.336436
-6.250000 -0.000001 -12.100000 -0.810938 -0.371044 -0.452406
-2.100001 6.650000 -12.950000 0.032105 0.154241 -0.987487
0.399999 8.700000 -10.950000 0.791955 0.220191 -0.569445
12.949999 8.350002 -1.300000 0.800439 0.055422 -0.596820
13.799999 8.350002 -0.850000 0.455428 0.429487 -0.779778
14.649999 8.850003 -0.100000 0.719047 0.694906 0.000000
13.949999 8.600002 -0.100000 -0.123112 0.992370 0.002136
0.149996 21.550001 9.800000 0.906583 0.411664 0.092654
-0.700004 23.800001 10.600000 0.034974 0.979766 0.196936
-1.400004 22.100000 9.600000 -0.617847 0.750633 -0.234016
-0.500004 22.150000 9.600000 0.354106 0.717124 -0.600238
-1.600003 21.300001 -10.650001 -0.804407 0.166112 -0.570330
-0.700004 23.800001 -10.600000 0.034974 0.979766 -0.196936
-0.500004 22.150000 -9.600000 0.364757 0.710257 0.602008
-1.400004 22.100000 -9.600000 -0.661794 0.713248 0.230781
1.350000 0.000000 -4.350000 -0.707114 0.000000 0.707083
3.000000 0.000000 -8.250000 -0.000031 -0.000031 -1.000000
4.450000 3.350001 -8.250000 0.000000 0.000031 -1.000000
2.350000 3.350001 -3.350000 -0.707083 0.000000 0.707083
-2.550000 -0.000000 -2.700000 1.000000 0.000000 0.000000
-2.550000 3.350000 -1.250000 1.000000 0.000000 0.000000
1.350000 0.000000 -12.150001 0.707083 0.000000 0.707083
2.350000 3.350001 -13.150001 0.707053 0.000000 0.707114
-2.550000 -0.000000 -13.800000 -1.000000 0.000031 0.000031
-2.550000 3.350000 -15.250000 -1.000000 0.000031 0.000000
-6.450000 -0.000001 -12.150001 0.707114 -0.000061 -0.707083
-7.450001 3.349999 -13.150001 0.707083 -0.000061 -0.707083
-8.100000 -0.000001 -8.250000 0.000000 0.000000 1.000000
-9.550001 3.349998 -8.250000 0.000000 -0.000031 1.000000
-6.450000 -0.000001 -4.350000 -0.707083 0.000061 -0.707083
-7.450001 3.349999 -3.350000 -0.707083 0.000000 -0.707083
1.350000 0.000000 12.200000 -0.707114 0.000000 0.707083
3.000000 0.000000 8.300000 0.000000 0.000000 -1.000000
4.450000 3.350001 8.300000 0.000000 0.000000 -1.000000
2.350000 3.350001 13.200000 -0.707114 0.000061 0.707083
-2.550000 -0.000000 13.850000 1.000000 0.000000 0.000000
-2.550000 3.350000 15.300000 1.000000 0.000000 -0.000061
1.350000 0.000000 4.400000 0.707083 0.000000 0.707083
2.350000 3.350001 3.400000 0.707053 0.000000 0.707144
-2.550000 -0.000000 2.750000 -1.000000 0.000000 0.000000
-2.550000 3.350000 1.300000 -1.000000 0.000000 0.000000
-6.450000 -0.000001 4.400000 0.707083 0.000000 -0.707083
-7.450001 3.349999 3.400000 0.707053 0.000000 -0.707144
-8.100000 -0.000001 8.300000 0.000000 0.000031 1.000000
-9.550001 3.349998 8.300000 -0.000031 0.000000 0.999969
-6.450000 -0.000001 12.200000 -0.707083 0.000031 -0.707083
-7.450001 3.349999 13.200000 -0.707083 -0.000031 -0.707114
3 0 1 2
3 3 4 5
3 3 5 6
3 3 6 7
3 3 7 8
3 3 8 9
3 3 9 10
3 3 10 11
3 3 11 12
3 3 12 4
3 4 12 13
3 4 13 5
3 5 13 12
3 5 12 14
3 5 14 15
3 5 15 6
3 6 15 16
3 6 16 17
3 6 17 18
3 6 18 19
3 6 19 7
3 7 19 8
3 8 19 20
3 8 20 21
3 8 21 22
3 8 22 10
3 8 10 9
3 23 24 25
3 23 25 26
3 23 26 27
3 23 27 28
3 23 28 29
3 23 29 30
3 23 30 31
3 23 31 32
3 23 32 33
3 23 33 34
3 23 34 24
3 24 34 35
3 24 35 36
3 24 36 37
3 24 37 25
3 25 37 38
3 25 38 39
3 25 39 26
3 26 39 40
3 26 40 41
3 26 41 27
3 27 41 28
3 28 41 42
3 28 42 43
3 28 43 29
3 29 43 44
3 29 44 45
3 29 45 46
3 29 46 30
3 30 46 31
3 31 46 47
3 31 47 32
3 32 47 33
3 33 47 48
3 33 48 49
3 33 49 50
3 33 50 51
3 33 51 52
3 33 52 34
3 34 52 53
3 34 53 35
3 35 53 54
3 35 54 55
3 35 55 56
3 35 56 57
3 35 57 36
3 36 57 58
3 36 58 59
3 36 59 60
3 36 60 61
3 36 61 62
3 36 62 63
3 36 63 37
3 37 63 64
3 37 64 65
3 37 65 66
3 37 66 67
3 37 67 38
3 38 67 68
3 38 68 69
3 38 69 39
3 39 69 70
3 39 70 71
3 39 71 72
3 39 72 73
3 39 73 74
3 39 74 75
3 39 75 40
3 40 75 41
3 41 75 76
3 41 76 42
3 42 76 77
3 42 77 78
3 42 78 43
3 43 78 79
3 43 79 44
3 44 79 80
3 44 80 81
3 44 81 45
3 45 81 74
3 45 74 46
3 46 74 73
3 46 73 82
3 46 82 83
3 46 83 47
3 47 83 84
3 47 84 85
3 47 85 48
3 48 85 86
3 48 86 87
3 48 87 88
3 48 88 89
3 48 89 61
3 48 61 49
3 49 61 50
3 50 61 60
3 50 60 59
3 50 59 90
3 50 90 52
3 50 52 51
3 91 92 11
3 91 11 93
3 91 93 94
3 91 94 92
3 92 94 93
3 92 93 14
3 92 14 95
3 92 95 96
3 92 96 12
3 92 12 11
3 97 98 99
3 97 99 56
3 97 56 55
3 97 55 54
3 97 54 100
3 97 100 101
3 97 101 98
3 98 101 102
3 98 102 103
3 98 103 104
3 98 104 105
3 98 105 99
3 99 105 104
3 99 104 106
3 99 106 56
3 56 106 107
3 56 107 57
3 57 107 58
3 58 107 108
3 58 108 59
3 59 108 90
3 90 108 52
3 52 108 109
3 52 109 53
3 53 109 110
3 53 110 54
3 54 110 111
3 54 111 112
3 54 112 100
3 100 112 101
3 101 112 111
3 101 111 113
3 101 113 107
3 101 107 114
3 101 114 102
3 102 114 115
3 102 115 103
3 103 115 114
3 103 114 106
3 103 106 116
3 103 116 117
3 103 117 104
3 104 117 106
3 106 117 118
3 106 118 116
3 116 118 117
3 119 120 121
3 119 121 122
3 119 122 123
3 119 123 124
3 119 124 125
3 119 125 126
3 119 126 120
3 120 126 127
3 120 127 128
3 120 128 129
3 120 129 130
3 120 130 131
3 120 131 121
3 121 131 132
3 121 132 133
3 121 133 134
3 121 134 122
3 122 134 86
3 122 86 135
3 122 135 136
3 122 136 137
3 122 137 123
3 123 137 138
3 123 138 139
3 123 139 140
3 123 140 124
3 124 140 141
3 124 141 142
3 124 142 143
3 124 143 125
3 125 143 144
3 125 144 145
3 125 145 146
3 125 146 147
3 125 147 126
3 126 147 127
3 127 147 148
3 127 148 149
3 127 149 150
3 127 150 128
3 128 150 151
3 128 151 152
3 128 152 153
3 128 153 129
3 129 153 154
3 129 154 133
3 129 133 155
3 129 155 130
3 130 155 156
3 130 156 131
3 131 156 132
3 132 156 155
3 132 155 133
3 152 157 153
3 153 157 158
3 153 158 159
3 153 159 154
3 154 159 160
3 154 160 161
3 154 161 162
3 154 162 133
3 133 162 163
3 133 163 134
3 134 163 89
3 134 89 164
3 134 164 165
3 134 165 86
3 86 165 87
3 87 165 166
3 87 166 88
3 88 166 164
3 88 164 89
3 167 168 169
3 167 169 170
3 167 170 171
3 167 171 172
3 167 172 168
3 168 172 162
3 168 162 173
3 168 173 174
3 168 174 175
3 168 175 169
3 169 175 176
3 169 176 177
3 169 177 178
3 169 178 179
3 169 179 180
3 169 180 181
3 169 181 182
3 169 182 183
3 169 183 170
3 170 183 184
3 170 184 185
3 170 185 171
3 171 185 186
3 171 186 187
3 171 187 172
3 172 187 188
3 172 188 65
3 172 65 64
3 172 64 162
3 162 64 62
3 162 62 89
3 162 89 163
3 189 190 191
3 189 191 192
3 189 192 193
3 189 193 180
3 189 180 194
3 189 194 195
3 189 195 196
3 189 196 190
3 190 196 197
3 190 197 191
3 191 197 192
3 192 197 198
3 192 198 193
3 193 198 199
3 193 199 200
3 193 200 180
3 180 200 181
3 181 200 201
3 181 201 182
3 182 201 202
3 182 202 184
3 182 184 183
3 197 196 203
3 197 203 204
3 197 204 198
3 198 204 205
3 198 205 206
3 198 206 207
3 198 207 199
3 199 207 208
3 199 208 209
3 199 209 210
3 199 210 200
3 200 210 211
3 200 211 201
3 201 211 212
3 201 212 213
3 201 213 202
3 202 213 214
3 202 214 184
3 184 214 215
3 184 215 216
3 184 216 217
3 184 217 218
3 184 218 219
3 184 219 185
3 185 219 186
3 186 219 218
3 186 218 220
3 186 220 187
3 187 220 221
3 187 221 188
3 188 221 65
3 65 221 66
3 66 221 222
3 66 222 223
3 66 223 224
3 66 224 67
3 67 224 225
3 67 225 226
3 67 226 227
3 67 227 228
3 67 228 229
3 67 229 68
3 68 229 230
3 68 230 231
3 68 231 232
3 68 232 233
3 68 233 69
3 69 233 234
3 69 234 70
3 70 234 71
3 71 234 235
3 71 235 236
3 71 236 237
3 71 237 238
3 71 238 82
3 71 82 72
3 72 82 73
3 239 240 241
3 239 241 242
3 239 242 243
3 239 243 244
3 239 244 240
3 240 244 17
3 240 17 245
3 240 245 241
3 241 245 242
3 242 245 16
3 242 16 243
3 243 16 15
3 243 15 246
3 243 246 247
3 243 247 244
3 244 247 248
3 244 248 17
3 17 248 18
3 18 248 249
3 18 249 176
3 18 176 175
3 18 175 19
3 19 175 174
3 19 174 173
3 19 173 20
3 20 173 250
3 20 250 21
3 21 250 251
3 21 251 22
3 22 251 252
3 22 252 11
3 22 11 10
3 247 246 253
3 247 253 93
3 247 93 11
3 247 11 252
3 247 252 251
3 247 251 248
3 248 251 249
3 249 251 176
3 176 251 254
3 176 254 255
3 176 255 177
3 177 255 256
3 177 256 178
3 178 256 257
3 178 257 258
3 178 258 157
3 178 157 259
3 178 259 179
3 179 259 180
3 180 259 260
3 180 260 194
3 194 260 195
3 195 260 261
3 195 261 262
3 195 262 263
3 195 263 264
3 195 264 203
3 195 203 196
3 265 213 212
3 265 212 211
3 265 211 266
3 265 266 267
3 265 267 268
3 265 268 213
3 213 268 269
3 213 269 270
3 213 270 271
3 213 271 214
3 214 271 272
3 214 272 215
3 215 272 273
3 215 273 216
3 216 273 274
3 216 274 275
3 216 275 217
3 217 275 276
3 217 276 220
3 217 220 218
3 149 277 278
3 149 278 150
3 150 278 151
3 151 278 277
3 151 277 152
3 152 277 148
3 152 148 260
3 152 260 157
3 157 260 259
3 165 164 166
3 203 264 204
3 204 264 279
3 204 279 280
3 204 280 281
3 204 281 282
3 204 282 283
3 204 283 284
3 204 284 205
3 205 284 285
3 205 285 286
3 205 286 206
3 206 286 282
3 206 282 281
3 206 281 287
3 206 287 288
3 206 288 207
3 207 288 289
3 207 289 290
3 207 290 208
3 208 290 209
3 209 290 289
3 209 289 288
3 209 288 291
3 209 291 292
3 209 292 293
3 209 293 294
3 209 294 210
3 210 294 295
3 210 295 211
3 211 295 273
3 211 273 296
3 211 296 297
3 211 297 266
3 266 297 267
3 267 297 298
3 267 298 299
3 267 299 300
3 267 300 301
3 267 301 268
3 268 301 269
3 268 302 269
3 14 12 96
3 14 96 303
3 14 303 95
3 95 303 96
3 14 93 253
3 14 253 15
3 15 253 246
3 106 114 107
3 271 270 300
3 271 300 304
3 271 304 272
3 272 304 305
3 272 305 298
3 272 298 297
3 272 297 296
3 272 296 273
3 148 277 149
3 260 148 306
3 260 306 261
3 261 306 262
3 262 306 147
3 262 147 307
3 262 307 308
3 262 308 263
3 263 308 264
3 264 308 279
3 279 308 309
3 279 309 280
3 280 309 310
3 280 310 311
3 280 311 312
3 280 312 281
3 281 312 313
3 281 313 294
3 281 294 287
3 287 294 293
3 287 293 292
3 287 292 291
3 287 291 288
3 17 16 245
3 147 306 148
3 108 110 109
3 110 108 111
3 111 108 113
3 113 108 107
3 256 255 314
3 256 314 161
3 256 161 315
3 256 315 257
3 257 315 316
3 257 316 317
3 257 317 258
3 258 317 318
3 258 318 158
3 258 158 157
3 161 314 162
3 162 314 319
3 162 319 250
3 162 250 173
3 62 64 63
3 89 62 61
3 84 86 85
3 86 84 135
3 135 84 136
3 136 84 82
3 136 82 238
3 136 238 320
3 136 320 321
3 136 321 137
3 137 321 322
3 137 322 323
3 137 323 138
3 138 323 222
3 138 222 324
3 138 324 142
3 138 142 325
3 138 325 139
3 139 325 326
3 139 326 140
3 140 326 141
3 141 326 325
3 141 325 142
3 300 270 269
3 300 269 301
3 305 304 300
3 305 300 299
3 305 299 298
3 305 327 298
3 313 295 294
3 295 313 328
3 295 328 274
3 295 274 273
3 313 312 329
3 313 329 328
3 328 329 330
3 328 330 331
3 328 331 275
3 328 275 274
3 84 83 82
3 323 238 225
3 323 225 224
3 323 224 223
3 323 223 222
3 330 332 333
3 330 333 334
3 330 334 331
3 331 334 275
3 275 334 335
3 275 335 336
3 275 336 337
3 275 337 338
3 275 338 339
3 275 339 340
3 275 340 341
3 275 341 276
3 276 341 220
3 220 341 221
3 221 341 340
3 221 340 222
3 222 340 342
3 222 342 343
3 222 343 344
3 222 344 345
3 222 345 324
3 324 345 346
3 324 346 347
3 324 347 348
3 324 348 142
3 142 348 143
3 143 348 332
3 143 332 349
3 143 349 144
3 144 349 350
3 144 350 145
3 145 350 351
3 145 351 146
3 146 351 332
3 146 332 330
3 146 330 307
3 146 307 147
3 334 333 335
3 335 333 352
3 335 352 353
3 335 353 354
3 335 354 336
3 336 354 355
3 336 355 337
3 337 355 338
3 338 355 356
3 338 356 357
3 338 357 358
3 338 358 359
3 338 359 339
3 339 359 360
3 339 360 361
3 339 361 340
3 340 361 342
3 342 361 360
3 342 360 362
3 342 362 343
3 343 362 363
3 343 363 357
3 343 357 356
3 343 356 355
3 343 355 344
3 344 355 354
3 344 354 345
3 345 354 364
3 345 364 346
3 346 364 365
3 346 365 366
3 346 366 347
3 347 366 367
3 347 367 368
3 347 368 348
3 348 368 333
3 348 333 332
3 232 231 369
3 232 369 370
3 232 370 371
3 232 371 372
3 232 372 373
3 232 373 374
3 232 374 233
3 233 374 234
3 234 374 375
3 234 375 376
3 234 376 236
3 234 236 235
3 230 377 369
3 230 369 231
3 378 379 380
3 378 380 381
3 378 381 382
3 378 382 230
3 378 230 229
3 378 229 228
3 378 228 375
3 378 375 379
3 379 375 373
3 379 373 372
3 379 372 380
3 380 372 371
3 380 371 370
3 380 370 369
3 380 369 383
3 380 383 384
3 380 384 381
3 381 384 385
3 381 385 386
3 381 386 382
3 382 386 387
3 382 387 388
3 382 388 389
3 382 389 390
3 382 390 377
3 382 377 230
3 375 374 373
3 227 226 236
3 227 236 376
3 227 376 375
3 227 375 228
3 225 237 236
3 225 236 226
3 307 330 308
3 308 330 329
3 308 329 309
3 309 329 310
3 310 329 311
3 311 329 312
3 351 349 332
3 349 351 350
3 391 320 238
3 391 238 323
3 391 323 322
3 391 322 392
3 391 392 320
3 320 392 321
3 321 392 322
3 390 386 383
3 390 383 393
3 390 393 377
3 377 393 383
3 377 383 369
3 386 384 383
3 384 386 385
3 387 386 389
3 387 389 388
3 386 390 389
3 237 225 238
3 286 285 394
3 286 394 282
3 282 394 283
3 283 394 395
3 283 395 284
3 284 395 285
3 285 395 394
3 212 265 396
3 296 397 297
3 199 208 398
3 294 293 399
3 290 400 289
3 292 291 401
3 267 299 402
3 267 301 403
3 254 250 255
3 255 250 319
3 255 319 314
3 251 250 254
3 404 405 406
3 404 406 407
3 404 407 408
3 404 408 409
3 404 409 410
3 404 410 411
3 404 411 405
3 405 411 410
3 405 410 406
3 406 410 412
3 406 412 413
3 406 413 414
3 406 414 415
3 406 415 416
3 406 416 407
3 407 416 360
3 407 360 359
3 407 359 417
3 407 417 418
3 407 418 408
3 408 418 419
3 408 419 409
3 409 419 420
3 409 420 421
3 409 421 422
3 409 422 423
3 409 423 424
3 409 424 410
3 410 424 421
3 410 421 412
3 412 421 425
3 412 425 420
3 412 420 426
3 412 426 427
3 412 427 428
3 412 428 413
3 413 428 415
3 413 415 414
3 429 430 431
3 429 431 432
3 429 432 433
3 429 433 430
3 430 433 417
3 430 417 434
3 430 434 431
3 431 434 435
3 431 435 432
3 432 435 418
3 432 418 433
3 433 418 417
3 436 425 421
3 436 421 420
3 436 420 425
3 420 419 426
3 426 419 435
3 426 435 434
3 426 434 358
3 426 358 357
3 426 357 437
3 426 437 427
3 427 437 428
3 428 437 357
3 428 357 438
3 428 438 415
3 415 438 362
3 415 362 360
3 415 360 416
3 423 422 424
3 424 422 421
3 417 359 358
3 417 358 434
3 438 357 363
3 438 363 362
3 81 439 74
3 74 439 75
3 75 439 76
3 76 439 440
3 76 440 77
3 77 440 441
3 77 441 78
3 78 441 79
3 79 441 80
3 80 441 442
3 80 442 81
3 81 442 439
3 439 442 440
3 440 442 441
3 160 315 161
3 315 160 443
3 315 443 316
3 316 443 444
3 316 444 317
3 317 444 318
3 318 444 445
3 318 445 158
3 158 445 159
3 159 445 446
3 159 446 160
3 160 446 443
3 443 446 444
3 444 446 445
3 354 353 364
3 364 353 447
3 364 447 365
3 365 447 448
3 365 448 366
3 366 448 367
3 367 448 449
3 367 449 368
3 368 449 352
3 368 352 333
3 353 352 450
3 353 450 447
3 447 450 448
3 448 450 449
3 449 450 352
3 451 452 453
3 451 453 454
3 451 454 455
3 451 455 456
3 451 456 454
3 451 454 452
3 452 454 453
3 452 453 457
3 452 457 458
3 452 458 453
3 453 458 457
3 457 458 459
3 457 459 460
3 457 460 458
3 458 460 459
3 459 460 461
3 459 461 462
3 459 462 460
3 460 462 461
3 461 462 463
3 461 463 464
3 461 464 462
3 462 464 463
3 463 464 465
3 463 465 466
3 463 466 464
3 464 466 465
3 465 466 455
3 465 455 456
3 465 456 466
3 466 456 455
3 455 454 456
3 467 468 469
3 467 469 470
3 467 470 471
3 467 471 472
3 467 472 470
3 467 470 468
3 468 470 469
3 468 469 473
3 468 473 474
3 468 474 469
3 469 474 473
3 473 474 475
3 473 475 476
3 473 476 474
3 474 476 475
3 475 476 477
3 475 477 478
3 475 478 476
3 476 478 477
3 477 478 479
3 477 479 480
3 477 480 478
3 478 480 479
3 479 480 481
3 479 481 482
3 479 482 480
3 480 482 481
3 481 482 471
3 481 471 472
3 481 472 482
3 482 472 471
3 471 470 472
3 419 418 435
