ply
format ascii 1.0
comment Created by Blender 2.82 (sub 7) - www.blender.org, source file: ''
element vertex 97
property float x
property float y
property float z
property float nx
property float ny
property float nz
property float s
property float t
element face 126
property list uchar uint vertex_indices
end_header
0.000000 13.000000 -0.000002 0.000000 1.000000 0.000000 0.347265 0.756166
3.000000 13.000001 4.999998 0.401807 0.634816 0.659902 0.455702 0.821228
5.000000 13.000000 1.999998 0.724204 0.640034 0.256539 0.390640 0.864603
5.000000 12.999999 -3.000002 0.672719 0.664235 -0.325846 0.282203 0.864603
3.000000 12.999999 -5.000002 0.325846 0.664235 -0.672719 0.238829 0.821228
-3.000000 12.999999 -5.000002 -0.209998 0.705100 -0.677236 0.238829 0.691104
-5.000000 12.999999 -4.000002 -0.585315 0.699545 -0.409864 0.260516 0.647730
-5.000000 13.000000 1.999998 -0.699149 0.672536 0.242500 0.390640 0.647730
-3.000000 13.000001 4.999998 -0.373913 0.675069 0.635945 0.455702 0.691104
3.000000 13.000001 4.999998 0.401807 0.634816 0.659902 0.303566 0.262238
-3.000000 13.000001 4.999998 -0.373913 0.675069 0.635945 0.263364 0.309655
-3.000000 3.000002 9.999999 -0.412275 -0.059816 0.909055 0.122854 0.198984
3.000000 3.000002 9.999999 0.409955 -0.038209 0.911283 0.235330 0.124536
5.000000 13.000000 1.999998 0.724204 0.640034 0.256539 0.343768 0.262563
3.000000 13.000001 4.999998 0.401807 0.634816 0.659902 0.999825 0.307267
5.000000 13.000000 1.999998 0.724204 0.640034 0.256539 0.885698 0.374091
4.000000 17.000000 0.999997 0.902554 0.288400 0.319681 0.841222 0.266352
1.000000 17.000000 3.999997 0.313303 0.299814 0.901059 0.904471 0.206404
-3.000000 13.000001 4.999998 -0.373913 0.675069 0.635945 0.999825 0.092866
-1.000000 17.000000 3.999997 -0.333354 0.286447 0.898190 0.902032 0.165021
-5.000000 13.000000 1.999998 -0.699149 0.672536 0.242500 0.911424 0.000175
-5.000000 13.000000 1.999998 -0.699149 0.672536 0.242500 0.275044 0.349604
-10.000000 3.000000 3.000000 -0.915311 -0.125370 0.382702 0.138042 0.417787
-8.000000 0.000000 1.000000 -0.741508 -0.629963 0.230781 0.000175 0.536564
-1.000000 0.000001 9.000000 -0.264077 -0.458815 0.848354 0.014681 0.035364
1.000000 0.000001 9.000000 0.245308 -0.465224 0.850490 0.124749 0.000175
10.000000 3.000000 3.000000 0.917600 -0.106296 0.382946 0.442499 0.128940
5.000000 12.999999 -3.000002 0.672719 0.664235 -0.325846 0.386541 0.297316
5.000000 12.999999 -3.000002 0.672719 0.664235 -0.325846 0.700103 0.359370
4.000000 17.000000 -1.000003 0.901059 0.299814 -0.313303 0.800579 0.266883
3.000000 21.000000 -1.000003 0.891171 0.222785 -0.395093 0.815863 0.209184
3.000000 21.000000 0.999997 0.891171 0.222785 0.395093 0.832519 0.208486
1.000000 21.000000 2.999997 0.395093 0.222785 0.891171 0.846494 0.191482
-1.000000 21.000000 2.999997 -0.395093 0.222785 0.891171 0.844370 0.175392
-4.000000 17.000000 0.999997 -0.899808 0.269387 0.343120 0.840582 0.104109
-5.000000 12.999999 -4.000002 -0.585315 0.699545 -0.409864 0.701103 0.012365
-5.000000 12.999999 -4.000002 -0.585315 0.699545 -0.409864 0.322846 0.392384
-10.000000 3.000000 -3.000000 -0.922697 -0.129612 -0.363018 0.211608 0.517316
-8.000000 -0.000000 -1.000000 -0.742149 -0.635884 -0.211676 0.041706 0.647379
-1.000000 -0.000001 -9.000000 -0.245308 -0.465224 -0.850490 0.538214 0.633158
-3.000000 2.999998 -10.000001 -0.392773 -0.057039 -0.917844 0.426978 0.514252
1.000000 -0.000001 -9.000000 0.264077 -0.458815 -0.848354 0.644038 0.595595
3.000000 2.999998 -10.000001 0.412275 -0.059816 -0.909055 0.533733 0.438332
8.000000 -0.000000 -1.000000 0.741508 -0.629963 -0.230781 0.644038 0.111997
10.000000 3.000000 -3.000000 0.915250 -0.127812 -0.382000 0.513963 0.226183
8.000000 0.000000 1.000000 0.742149 -0.635884 0.211676 0.604258 0.007833
1.000000 17.000000 -4.000003 0.313303 0.299814 -0.901059 0.741878 0.206097
1.000000 21.000000 -3.000003 0.395093 0.222785 -0.891171 0.797743 0.196599
-1.000000 17.000000 -4.000003 -0.313303 0.299814 -0.901059 0.739373 0.165958
-1.000000 21.000000 -3.000003 -0.395093 0.222785 -0.891171 0.796166 0.180908
-4.000000 17.000000 -1.000003 -0.900296 0.308359 -0.307108 0.799918 0.107542
-3.000000 21.000000 -1.000003 -0.891171 0.222785 -0.395093 0.809702 0.163539
-3.000000 21.000000 0.999997 -0.891171 0.222785 0.395093 0.826169 0.162320
5.000000 21.000000 0.999997 0.923856 0.000000 0.382672 0.930995 0.611803
5.000000 21.000000 -1.000003 0.923856 0.000000 -0.382672 0.875726 0.661185
5.000000 24.000000 -1.000004 0.717277 0.630238 -0.297098 0.838182 0.586733
5.000000 24.000000 0.999996 0.717277 0.630238 0.297098 0.862835 0.562461
1.000000 21.000000 4.999997 0.382672 0.000000 0.923856 0.930995 0.434606
1.000000 24.000000 4.999996 0.297098 0.630238 0.717277 0.857840 0.471185
-1.000000 21.000000 4.999997 -0.382672 0.000000 0.923856 0.883065 0.380136
-1.000000 24.000000 4.999996 -0.297098 0.630238 0.717277 0.834011 0.447256
-5.000000 21.000000 0.999997 -0.923856 0.000000 0.382672 0.706219 0.374441
-5.000000 24.000000 0.999996 -0.717277 0.630238 0.297098 0.742552 0.449184
-5.000000 21.000000 -1.000003 -0.923856 0.000000 -0.382672 0.649690 0.423059
-5.000000 24.000000 -1.000004 -0.717277 0.630238 -0.297098 0.718056 0.473701
-1.000000 21.000000 -5.000003 -0.382672 0.000000 -0.923856 0.644389 0.604114
-1.000000 24.000000 -5.000004 -0.297098 0.630238 -0.717277 0.720269 0.566808
1.000000 21.000000 -5.000003 0.382672 0.000000 -0.923856 0.694461 0.661216
1.000000 24.000000 -5.000004 0.297098 0.630238 -0.717277 0.745210 0.591776
1.000000 24.000000 -3.000004 0.227454 0.804163 -0.549120 0.768337 0.565475
3.000000 24.000000 -1.000004 0.549120 0.804163 -0.227454 0.814918 0.564011
3.000000 24.000000 0.999996 0.549120 0.804163 0.227454 0.837328 0.540083
1.000000 24.000000 2.999996 0.227454 0.804163 0.549120 0.835758 0.493725
-1.000000 24.000000 2.999996 -0.227454 0.804163 0.549120 0.812490 0.471408
-3.000000 24.000000 0.999996 -0.549120 0.804163 0.227454 0.766191 0.472613
-3.000000 24.000000 -1.000004 -0.549120 0.804163 -0.227454 0.742873 0.495881
-1.000000 24.000000 -3.000004 -0.227454 0.804163 -0.549120 0.744145 0.542446
3.000000 24.000000 0.999996 0.549120 0.804163 0.227454 0.059240 0.884470
3.000000 24.000000 -1.000004 0.549120 0.804163 -0.227454 0.000631 0.825168
3.000000 28.000000 -1.000005 0.717277 0.630238 -0.297098 0.095603 0.780716
3.000000 28.000000 0.999995 0.717277 0.630238 0.297098 0.110557 0.790935
1.000000 24.000000 2.999996 0.227454 0.804163 0.549120 0.177469 0.886050
1.000000 28.000000 2.999995 0.297098 0.630238 0.717277 0.134863 0.790008
-1.000000 24.000000 2.999996 -0.227454 0.804163 0.549120 0.238478 0.828489
-1.000000 28.000000 2.999995 -0.297098 0.630238 0.717277 0.145897 0.776337
-3.000000 24.000000 0.999996 -0.549120 0.804163 0.227454 0.238478 0.708405
-3.000000 28.000000 0.999995 -0.717277 0.630238 0.297098 0.142535 0.752790
-3.000000 24.000000 -1.000004 -0.549120 0.804163 -0.227454 0.180375 0.648229
-3.000000 28.000000 -1.000005 -0.717277 0.630238 -0.297098 0.128272 0.741225
-1.000000 24.000000 -3.000004 -0.227454 0.804163 -0.549120 0.060652 0.647730
-1.000000 28.000000 -3.000005 -0.297098 0.630238 -0.717277 0.104117 0.743874
1.000000 24.000000 -3.000004 0.227454 0.804163 -0.549120 0.000175 0.705445
1.000000 28.000000 -3.000005 0.297098 0.630238 -0.717277 0.092667 0.757441
-3.000000 12.999999 -5.000002 -0.209998 0.705100 -0.677236 0.647274 0.065264
3.000000 12.999999 -5.000002 0.325846 0.664235 -0.672719 0.644389 0.278524
-3.000000 12.999999 -5.000002 -0.209998 0.705100 -0.677236 0.347499 0.382347
3.000000 12.999999 -5.000002 0.325846 0.664235 -0.672719 0.390223 0.331074
3 0 1 2
3 0 2 3
3 0 3 4
3 0 4 5
3 0 5 6
3 0 6 7
3 0 7 8
3 0 8 1
3 9 10 11
3 9 11 12
3 9 12 13
3 14 15 16
3 14 16 17
3 14 17 18
3 18 17 19
3 18 19 20
3 10 21 22
3 10 22 11
3 11 22 23
3 11 23 24
3 11 24 12
3 12 24 25
3 12 25 26
3 12 26 13
3 13 26 27
3 15 28 29
3 15 29 16
3 16 29 30
3 16 30 31
3 16 31 17
3 17 31 32
3 17 32 19
3 19 32 33
3 19 33 34
3 19 34 20
3 20 34 35
3 21 36 37
3 21 37 22
3 22 37 38
3 22 38 23
3 39 38 37
3 39 37 40
3 39 40 41
3 41 40 42
3 41 42 43
3 43 42 44
3 43 44 45
3 45 44 26
3 45 26 25
3 29 46 47
3 29 47 30
3 46 48 49
3 46 49 47
3 48 50 51
3 48 51 49
3 50 34 52
3 50 52 51
3 34 33 52
3 53 54 55
3 53 55 56
3 53 56 57
3 57 56 58
3 57 58 59
3 59 58 60
3 59 60 61
3 61 60 62
3 61 62 63
3 63 62 64
3 63 64 65
3 65 64 66
3 65 66 67
3 67 66 68
3 67 68 54
3 54 68 55
3 55 68 69
3 55 69 70
3 55 70 71
3 55 71 56
3 56 71 58
3 58 71 72
3 58 72 73
3 58 73 60
3 60 73 74
3 60 74 62
3 62 74 75
3 62 75 64
3 64 75 76
3 64 76 66
3 66 76 69
3 66 69 68
3 77 78 79
3 77 79 80
3 77 80 81
3 81 80 82
3 81 82 83
3 83 82 84
3 83 84 85
3 85 84 86
3 85 86 87
3 87 86 88
3 87 88 89
3 89 88 90
3 89 90 91
3 91 90 92
3 91 92 78
3 78 92 79
3 79 92 80
3 80 92 90
3 80 90 88
3 80 88 86
3 80 86 84
3 80 84 82
3 93 35 50
3 93 50 48
3 93 48 94
3 95 96 42
3 95 42 40
3 95 40 36
3 36 40 37
3 94 48 46
3 94 46 28
3 96 27 44
3 96 44 42
3 28 46 29
3 35 34 50
3 26 44 27
