ply
format ascii 1.0
comment Exported by Aspose.3D 20.2.1
element vertex 94
property float x
property float y
property float z
element face 100
property list uchar int vertex_index
end_header
0 20 -59
0 0 -59
0 0 -39
0 20 -39
0 20 -48
10 38 -38
13.09 38 -38.489
20 20 -39
20 0 -39
20 0 -59
20 20 -59
20 20 -48
15.878 38 -39.91
18.09 38 -42.122
19.511 38 -51.09
19.511 38 -44.91
18.09 38 -53.878
20 38 -48
0 38 -48
19.511 20 -51.09
13.09 18 -38.489
0.489 38 -44.91
1.91 38 -42.122
14.0926 18 -39
4.122 38 -39.91
15.878 20 -39.91
14.0926 20 -39
6.91 38 -38.489
15.878 38 -56.09
18.09 20 -53.878
5.9074 18 -39
13.09 38 -57.511
0.489 38 -51.09
10 38 -58
18.09 20 -42.122
15.878 20 -56.09
19.511 20 -44.91
6.91 38 -57.511
4.122 38 -56.09
1.91 38 -53.878
13.09 20 -57.511
0.489 20 -44.91
10 20 -58
1.91 20 -42.122
6.91 20 -57.511
5.9074 20 -39
4.122 20 -39.91
4.122 20 -56.09
1.91 20 -53.878
0.489 20 -51.09
13.09 38 -38.489
14.0926 20 -39
15.878 38 -39.91
15.878 20 -39.91
18.09 38 -42.122
19.511 38 -44.91
20 20 -48
20 38 -48
0 38 -48
10 38 -38
0.489 38 -44.91
1.91 38 -42.122
4.122 38 -39.91
6.91 38 -38.489
13.09 18 -38.489
14.0926 18 -39
19.511 20 -51.09
18.09 20 -53.878
18.09 38 -53.878
19.511 38 -51.09
15.878 38 -56.09
15.878 20 -56.09
10 38 -58
6.91 20 -57.511
6.91 38 -57.511
0.489 38 -51.09
13.09 38 -57.511
4.122 38 -56.09
1.91 38 -53.878
13.09 20 -57.511
0.489 20 -44.91
0 20 -48
10 20 -58
1.91 20 -42.122
4.122 20 -39.91
0.489 20 -51.09
6.91 18 -38.489
5.9074 20 -39
10 18 -38
18.09 20 -42.122
19.511 20 -44.91
5.9074 18 -39
4.122 20 -56.09
1.91 20 -53.878
3 2 4 1
3 3 4 2
3 4 0 1
3 10 11 9
3 8 9 11
3 11 7 8
3 34 25 7
3 26 7 25
3 34 7 36
3 11 36 7
3 8 23 30
3 8 30 2
3 19 11 10
3 45 3 30
3 2 30 3
3 40 10 42
3 40 35 10
3 10 0 42
3 42 0 44
3 26 23 7
3 44 0 47
3 19 10 29
3 29 10 35
3 47 0 48
3 8 7 23
3 48 0 49
3 3 41 4
3 49 0 4
3 41 3 43
3 3 45 46
3 3 46 43
3 1 9 8
3 1 8 2
3 10 9 1
3 10 1 0
3 50 51 52
3 53 54 52
3 55 56 57
3 52 58 50
3 54 58 52
3 55 58 54
3 57 58 55
3 59 50 58
3 59 58 60
3 59 60 61
3 59 61 62
3 59 62 63
3 64 65 51
3 56 66 57
3 66 67 68
3 66 68 69
3 70 68 71
3 67 71 68
3 72 73 74
3 57 69 58
3 69 68 58
3 68 70 58
3 75 58 70
3 75 70 76
3 75 76 72
3 74 77 72
3 78 72 77
3 75 72 78
3 71 79 76
3 71 76 70
3 80 60 81
3 77 74 73
3 72 76 82
3 79 82 76
3 61 80 83
3 58 81 60
3 83 84 61
3 85 75 78
3 86 63 87
3 63 62 87
3 61 60 80
3 85 81 75
3 75 81 58
3 84 62 61
3 63 86 59
3 88 59 86
3 84 87 62
3 88 64 50
3 88 50 59
3 53 52 51
3 64 51 50
3 54 53 89
3 89 90 55
3 89 55 54
3 90 56 55
3 65 64 88
3 65 88 86
3 65 86 91
3 69 57 66
3 87 91 86
3 72 82 73
3 77 73 92
3 92 93 78
3 92 78 77
3 93 85 78
